<?xml version="1.0" encoding="UTF-8"?>
<svg xmlns="http://www.w3.org/2000/svg" width="25" height="25" viewBox="0 0 25 25" fill="none">
  <g clip-path="url(#clip0_1367_4029)">
    <path d="M20.3369 3.50002H19.3369V2.50002C19.3369 1.95002 18.8869 1.50002 18.3369 1.50002C17.7869 1.50002 17.3369 1.95002 17.3369 2.50002V3.50002H7.33691V2.50002C7.33691 1.95002 6.88691 1.50002 6.33691 1.50002C5.78691 1.50002 5.33691 1.95002 5.33691 2.50002V3.50002H4.33691C3.23691 3.50002 2.33691 4.40002 2.33691 5.50002V21.5C2.33691 22.6 3.23691 23.5 4.33691 23.5H20.3369C21.4369 23.5 22.3369 22.6 22.3369 21.5V5.50002C22.3369 4.40002 21.4369 3.50002 20.3369 3.50002ZM19.3369 21.5H5.33691C4.78691 21.5 4.33691 21.05 4.33691 20.5V8.50002H20.3369V20.5C20.3369 21.05 19.8869 21.5 19.3369 21.5Z" fill="black"></path>
  </g>
  <defs>
    <clipPath id="clip0_1367_4029">
      <rect width="24" height="24" fill="white" transform="translate(0.336914 0.500015)"></rect>
    </clipPath>
  </defs>
</svg>
