<svg width="40" height="40" viewBox="0 0 40 40" fill="none" xmlns="http://www.w3.org/2000/svg">
<path d="M20 0C8.97156 0 0 8.97156 0 20C0 31.0284 8.97156 40 20 40C31.0284 40 40 31.0284 40 20C40 8.97156 31.0284 0 20 0Z" fill="#005EE0"/>
<path d="M30.1367 15.7615L19.3033 26.5946C18.9783 26.9196 18.5516 27.0832 18.125 27.0832C17.6984 27.0832 17.2717 26.9196 16.9467 26.5946L11.5302 21.178C10.8783 20.5265 10.8783 19.473 11.5302 18.8215C12.1817 18.1696 13.2349 18.1696 13.8867 18.8215L18.125 23.0598L27.7802 13.4049C28.4317 12.7531 29.4849 12.7531 30.1367 13.4049C30.7883 14.0565 30.7883 15.1096 30.1367 15.7615Z" fill="white"/>
</svg>
