<svg width="10" height="16" viewBox="0 0 10 16" fill="none" xmlns="http://www.w3.org/2000/svg">
<path d="M0.518134 15.7015C0.33143 15.4681 0.232242 15.2114 0.220573 14.9314C0.208904 14.6513 0.308092 14.4063 0.518134 14.1962L6.67938 8.03496L0.483126 1.83871C0.296422 1.652 0.208904 1.40112 0.220573 1.08605C0.232242 0.770989 0.33143 0.520105 0.518134 0.333401C0.751515 0.10002 1.0024 -0.0108355 1.27079 0.000833505C1.53917 0.0125025 1.77839 0.123358 1.98843 0.333401L8.95484 7.29981C9.07153 7.4165 9.15322 7.53319 9.19989 7.64988C9.24657 7.76657 9.26991 7.89493 9.26991 8.03496C9.26991 8.17499 9.24657 8.30335 9.19989 8.42004C9.15322 8.53673 9.07153 8.65342 8.95484 8.77011L2.02344 15.7015C1.8134 15.9116 1.56835 16.0107 1.28829 15.9991C1.00823 15.9874 0.751515 15.8882 0.518134 15.7015V15.7015Z" fill="#747989"/>
</svg>
