<?xml version="1.0" encoding="UTF-8"?> <svg xmlns="http://www.w3.org/2000/svg" xmlns:xlink="http://www.w3.org/1999/xlink" width="142px" height="25px" viewBox="0 0 142 25"><!-- Generator: Sketch 52.6 (67491) - http://www.bohemiancoding.com/sketch --><title>US News</title><desc>Created with Sketch.</desc><g id="TEMPLATES" stroke="none" stroke-width="1" fill="none" fill-rule="evenodd"><g id="1440-Home-Latest" transform="translate(-575.000000, -4744.000000)" fill="#B4BBC4"><g id="Press" transform="translate(0.000000, 4572.000000)"><g id="US-News" transform="translate(575.000000, 172.000000)"><path d="M20.7295,16.7604687 L20.7295,0.29953125 L15.5327857,0.29953125 L15.5327857,16.0464062 C15.5327857,18.4979687 13.4286429,19.9589062 10.4555,19.9589062 C7.05964286,19.9589062 5.19435714,18.4979687 5.19435714,16.0151562 L5.19435714,0.29953125 L0.000785714286,0.29953125 L0.000785714286,16.4620312 C0.000785714286,21.9948437 4.4165,24.2026562 10.3345,24.2026562 C14.4186429,24.2026562 17.7107857,23.0917187 19.4283571,20.8448437 L19.4283571,23.9026562 L24.0640714,23.9026562 L24.0640714,19.0964062 L20.3602143,19.0964062 C20.5990714,18.3917187 20.7295,17.6135937 20.7295,16.7604687" id="Fill-1"></path><path d="M45.5708,17.093125 C45.5708,13.0571875 43.1083714,11.115 38.3893714,10.218125 C37.8472286,10.1275 36.2836571,9.7978125 35.0846571,9.5603125 C31.2079429,8.78375 29.7936571,8.09625 29.7936571,6.3634375 C29.7936571,5.018125 30.5762286,4.1525 34.5126571,4.1525 C37.5172286,4.1525 38.8089429,4.84 39.4390857,6.155625 C39.6198,6.515 39.7722286,7.0509375 39.7722286,7.318125 L45.1198,7.318125 C45.1198,6.718125 44.8809429,5.8275 44.5792286,5.049375 C43.3786571,2.061875 40.5830857,0.0009375 34.6320857,0.0009375 C27.6628,0.0009375 24.4178,2.686875 24.4178,6.693125 C24.4178,10.60875 27.2699429,12.7290625 31.8993714,13.5946875 C32.9506571,13.8025 34.6933714,14.1321875 35.3863714,14.2540625 C39.2285143,14.97125 40.2216571,15.655625 40.2216571,17.599375 C40.2216571,19.1540625 38.9598,20.136875 35.3518,20.136875 C32.1995143,20.136875 30.6375143,19.5415625 29.9759429,18.1665625 C29.7936571,17.8103125 29.6443714,17.093125 29.6443714,16.6728125 L24.2952286,16.6728125 C24.2952286,17.149375 24.3863714,18.3165625 24.6299429,19.0915625 C25.5869429,22.0790625 28.1719429,24.230625 35.3518,24.230625 C39.8633714,24.230625 42.8648,22.9728125 44.3906571,20.89 L44.3906571,23.9025 L49.0232286,23.9025 L49.0232286,19.09625 L45.2800857,19.09625 C45.4686571,18.47125 45.5708,17.8025 45.5708,17.093125" id="Fill-3"></path><polygon id="Fill-5" points="65.7899 15.50625 56.6551857 0.3 50.6161857 0.3 50.6161857 23.903125 55.5740429 23.903125 55.5740429 7.9171875 65.1299 23.903125 70.7477571 23.903125 70.7477571 0.3 65.7899 0.3"></polygon><path d="M77.1643714,13.4882812 C77.1643714,12.9789062 77.6436571,11.9367187 78.2470857,11.3992187 C79.1082286,10.6382812 80.4455143,10.1617188 82.2589429,10.1617188 C84.1698,10.1617188 85.3798,10.7648437 86.1136571,11.4929688 C86.7500857,12.1585937 86.9669429,12.9789062 86.9669429,13.4882812 L77.1643714,13.4882812 Z M82.2275143,6.08046875 C78.4058,6.08046875 75.3808,7.50390625 73.6930857,9.94140625 C72.7078,11.3351563 72.1640857,13.1054688 72.1640857,15.1007813 C72.1640857,17.2867187 72.6418,19.0273438 73.5045143,20.3898437 C75.1906571,23.0492187 78.3413714,24.1867188 82.2275143,24.1867188 C85.0592286,24.1867188 87.1948,23.5867187 88.7253714,22.6070312 C90.4743714,21.4960938 91.4942286,19.9148437 91.9043714,18.2367188 L86.9056571,18.2367188 C86.8129429,18.6179687 86.3650857,19.1851562 85.4458,19.5976562 C84.7103714,19.9148437 83.6606571,20.1679688 82.2275143,20.1679688 C80.3166571,20.1679688 78.8866571,19.6632812 78.1496571,18.8710938 C77.5478,18.2054688 77.1958,17.6054688 77.1958,16.8085938 L92.0332286,16.8085938 C92.3192286,14.1851563 91.8415143,11.6820312 90.5356571,9.78359375 C88.9783714,7.53359375 86.2378,6.08046875 82.2275143,6.08046875 Z" id="Fill-7"></path><path d="M118.285514,6.4921875 L114.180943,19.4390625 L110.231943,6.4921875 L104.566943,6.4921875 L100.715371,19.4390625 L96.5133714,6.4921875 L91.1956571,6.4921875 L97.4625143,23.903125 L103.517229,23.903125 C103.517229,23.903125 106.957086,13.9 106.988514,13.296875 C107.019943,13.10625 107.206943,12.075 107.206943,12.075 C107.206943,12.075 107.400229,13.10625 107.4348,13.328125 C107.496086,13.9 110.937514,23.903125 110.937514,23.903125 L116.952943,23.903125 L123.288943,6.4921875 L118.285514,6.4921875 Z" id="Fill-9"></path><path d="M135.378571,13.32875 C134.775143,13.2334375 132.323714,12.8834375 131.305429,12.72875 C128.822571,12.3475 128.277286,12.063125 128.277286,11.30375 C128.277286,10.4834375 129.107,10.0365625 131.910429,10.0365625 C134.328857,10.0365625 135.251286,10.450625 135.603286,10.9240625 C135.758857,11.1459375 135.826429,11.681875 135.826429,11.8709375 L140.760714,11.8709375 C140.760714,11.5240625 140.663286,10.450625 140.441714,9.781875 C139.552286,7.2834375 136.522571,6.0490625 131.718714,6.0490625 C126.080429,6.0490625 123.283286,8.075625 123.283286,11.1740625 C123.283286,14.5021875 125.128143,16.17875 128.981286,16.71625 C130.031,16.875625 132.133571,17.1928125 132.798286,17.2865625 C135.378571,17.66625 136.429857,17.8865625 136.429857,18.8709375 C136.429857,19.881875 135.538857,20.3896875 132.642714,20.3896875 C129.870714,20.3896875 128.535,20.1678125 128.214429,19.3459375 C128.088714,18.9959375 128.057286,18.6803125 128.057286,18.456875 L122.995714,18.456875 C122.995714,19.0271875 123.027143,19.50375 123.184286,20.1990625 C123.918143,23.050625 126.718429,24.2178125 132.642714,24.2178125 C138.691143,24.2178125 141.428571,22.3834375 141.428571,18.7740625 C141.428571,15.513125 139.579,13.963125 135.378571,13.32875" id="Fill-11"></path><path d="M74.6445857,3.4128125 C74.8457286,3.614375 75.1301571,3.8346875 75.4020143,4.0675 C75.2841571,4.0971875 75.1207286,4.114375 74.9855857,4.114375 C74.4874429,4.114375 74.2753,4.0284375 74.2753,3.79875 C74.2753,3.6659375 74.4261571,3.53625 74.6445857,3.4128125 M74.8174429,1.5659375 C74.8378714,1.3971875 74.9274429,1.255 75.1380143,1.255 C75.3580143,1.255 75.4334429,1.3925 75.4413,1.54875 L75.4413,1.645625 C75.4255857,1.83 75.2558714,1.98625 75.0107286,2.13 C74.8928714,1.976875 74.8253,1.8253125 74.8174429,1.6940625 C74.8111571,1.655 74.8111571,1.6034375 74.8174429,1.5659375 M75.0531571,5.0784375 C75.5073,5.0784375 75.9975857,5.0034375 76.3668714,4.8503125 C76.4344429,4.9096875 76.5098714,4.9753125 76.5900143,5.0315625 L78.4050143,5.0315625 C78.0593,4.7596875 77.6994429,4.483125 77.3820143,4.24875 C77.7638714,3.8878125 78.0074429,3.37375 78.0294429,2.7784375 L76.6921571,2.7784375 C76.6780143,3.0503125 76.5900143,3.301875 76.4344429,3.49875 C76.1594429,3.2753125 75.8844429,3.03 75.6691571,2.8565625 C76.1453,2.5628125 76.6088714,2.145625 76.6245857,1.5440625 C76.6245857,1.5128125 76.6308714,1.3815625 76.6245857,1.3378125 C76.5900143,0.7628125 76.0604429,0.2409375 75.1521571,0.2409375 C74.1590143,0.2409375 73.5838714,0.7925 73.5571571,1.3753125 L73.5571571,1.6159375 C73.5650143,1.9034375 73.6703,2.2284375 73.9484429,2.6190625 C73.3843,2.883125 72.8688714,3.2175 72.8563,3.758125 C72.8563,3.8190625 72.8515857,3.93 72.8563,4.0034375 C72.8971571,4.87375 73.9185857,5.0784375 75.0531571,5.0784375" id="Fill-13"></path><path d="M82.5248286,5.031875 C82.5248286,5.031875 83.2555429,2.30375 83.2634,2.1459375 C83.2806857,2.2975 83.9956857,5.031875 83.9956857,5.031875 L85.5906857,5.031875 L86.9279714,0.288125 L85.5121143,0.288125 C85.5121143,0.288125 84.7955429,3.2178125 84.7955429,3.3678125 C84.7955429,3.2178125 84.0711143,0.288125 84.0711143,0.288125 L82.5704,0.288125 C82.5704,0.288125 81.8648286,3.2178125 81.8648286,3.3678125 C81.8648286,3.2178125 81.1372571,0.288125 81.1372571,0.288125 L79.5768286,0.288125 L80.9424,5.031875 L82.5248286,5.031875 Z" id="Fill-15"></path><path d="M89.5271143,1.3246875 C90.3364,1.3246875 90.5941143,1.7121875 90.5941143,2.6528125 C90.5941143,3.7090625 90.2059714,3.991875 89.5349714,3.991875 C88.8372571,3.991875 88.4711143,3.6575 88.4711143,2.6528125 C88.4711143,1.698125 88.7476857,1.3246875 89.5271143,1.3246875 M89.5271143,5.1028125 C91.2729714,5.1028125 92.0696857,4.2840625 92.0696857,2.6184375 C92.0696857,1.0325 91.3264,0.2028125 89.5271143,0.2028125 C87.7624,0.2028125 86.9814,1.123125 86.9814,2.635625 C86.9814,4.2575 87.7765429,5.1028125 89.5271143,5.1028125" id="Fill-17"></path><path d="M94.1700571,1.405625 L95.4004857,1.405625 C95.6110571,1.405625 95.7524857,1.4509375 95.8216286,1.6040625 C95.8640571,1.674375 95.8734857,1.8025 95.8734857,1.90875 C95.8734857,2.0040625 95.8562,2.130625 95.8184857,2.215 C95.7650571,2.3321875 95.6110571,2.3728125 95.4319143,2.3728125 L94.1700571,2.3728125 L94.1700571,1.405625 Z M94.1559143,3.4275 L95.1427714,3.4275 L95.9803429,5.0321875 L97.6193429,5.0321875 L96.5036286,3.1321875 C96.7236286,3.08375 96.9389143,2.9353125 97.0897714,2.6821875 C97.2170571,2.4728125 97.3003429,2.1696875 97.3003429,1.7884375 C97.3003429,1.3446875 97.2107714,1.0259375 97.0253429,0.786875 C96.7849143,0.47125 96.3716286,0.29 95.7367714,0.29 L92.7164857,0.29 L92.7164857,5.0321875 L94.1559143,5.0321875 L94.1559143,3.4275 Z" id="Fill-19"></path><polygon id="Fill-21" points="102.076386 3.85921875 99.7852429 3.85921875 99.7852429 0.28890625 98.3096714 0.28890625 98.3096714 5.03109375 102.076386 5.03109375"></polygon><path d="M104.257057,3.91265625 L104.257057,1.39859375 L105.177914,1.39859375 C105.537771,1.39859375 105.713771,1.45171875 105.8992,1.65484375 C106.015486,1.78921875 106.050057,2.22828125 106.050057,2.56890625 C106.050057,2.95328125 106.035914,3.49078125 105.911771,3.64234375 C105.746771,3.83453125 105.550343,3.91265625 105.177914,3.91265625 L104.257057,3.91265625 Z M107.1312,4.34390625 C107.3952,3.95015625 107.465914,3.57984375 107.465914,2.56890625 C107.465914,1.70484375 107.409343,1.30953125 107.117057,0.90640625 C106.821629,0.49859375 106.285771,0.28921875 105.423057,0.28921875 L102.805057,0.28921875 L102.805057,5.03140625 L105.493771,5.03140625 C106.351771,5.03140625 106.843629,4.78140625 107.1312,4.34390625 Z" id="Fill-23"></path><path d="M111.346871,1.405625 L112.574157,1.405625 C112.784729,1.405625 112.9293,1.4509375 113.003157,1.6040625 C113.0393,1.674375 113.048729,1.8025 113.048729,1.90875 C113.048729,2.0040625 113.033014,2.130625 112.996871,2.215 C112.943443,2.3321875 112.784729,2.3728125 112.607157,2.3728125 L111.346871,2.3728125 L111.346871,1.405625 Z M111.332729,3.4275 L112.318014,3.4275 L113.1603,5.0321875 L114.796157,5.0321875 L113.678871,3.1321875 C113.898871,3.08375 114.118871,2.9353125 114.266586,2.6821875 C114.3923,2.4728125 114.477157,2.1696875 114.477157,1.7884375 C114.477157,1.3446875 114.389157,1.0259375 114.202157,0.786875 C113.961729,0.47125 113.548443,0.29 112.913586,0.29 L109.896443,0.29 L109.896443,5.0321875 L111.332729,5.0321875 L111.332729,3.4275 Z" id="Fill-25"></path><polygon id="Fill-27" points="119.6283 3.92640625 116.982014 3.92640625 116.982014 3.22171875 119.505729 3.22171875 119.505729 2.09359375 116.982014 2.09359375 116.982014 1.40609375 119.601586 1.40609375 119.601586 0.28890625 115.5473 0.28890625 115.5473 5.03265625 119.6283 5.03265625"></polygon><path d="M122.016086,1.391875 L123.180514,1.391875 C123.420943,1.391875 123.559229,1.4653125 123.640943,1.616875 C123.684943,1.6809375 123.705371,1.8028125 123.705371,1.9496875 C123.705371,2.08875 123.6928,2.1778125 123.645657,2.26375 C123.576514,2.395 123.4398,2.485625 123.161657,2.485625 L122.016086,2.485625 L122.016086,1.391875 Z M122.033371,3.548125 C122.033371,3.548125 123.325086,3.5575 123.504229,3.5559375 C124.090371,3.5434375 124.547657,3.391875 124.821086,3.073125 C125.059943,2.8215625 125.174657,2.4496875 125.174657,1.923125 C125.174657,1.3340625 125.0238,0.9246875 124.744086,0.685625 C124.483229,0.4153125 124.074657,0.28875 123.497943,0.28875 L120.564086,0.28875 L120.564086,5.0325 L122.033371,5.0325 L122.033371,3.548125 Z" id="Fill-29"></path><path d="M128.235014,1.3246875 C129.0443,1.3246875 129.298871,1.7121875 129.298871,2.6528125 C129.298871,3.7090625 128.910729,3.991875 128.236586,3.991875 C127.540443,3.991875 127.177443,3.6575 127.177443,2.6528125 C127.177443,1.698125 127.450871,1.3246875 128.235014,1.3246875 M128.235014,5.1028125 C129.977729,5.1028125 130.776014,4.2840625 130.776014,2.6184375 C130.776014,1.0325 130.031157,0.2028125 128.235014,0.2028125 C126.467157,0.2028125 125.686157,1.123125 125.686157,2.635625 C125.686157,4.2575 126.4813,5.1028125 128.235014,5.1028125" id="Fill-31"></path><path d="M132.889586,1.405625 L134.120014,1.405625 C134.329014,1.405625 134.473586,1.4509375 134.545871,1.6040625 C134.582014,1.674375 134.593014,1.8025 134.593014,1.90875 C134.593014,2.0040625 134.575729,2.130625 134.541157,2.215 C134.4893,2.3321875 134.329014,2.3728125 134.149871,2.3728125 L132.889586,2.3728125 L132.889586,1.405625 Z M132.878586,3.4275 L133.863871,3.4275 L134.706157,5.0321875 L136.338871,5.0321875 L135.224729,3.1321875 C135.449443,3.08375 135.663157,2.9353125 135.815586,2.6821875 C135.938157,2.4728125 136.024586,2.1696875 136.024586,1.7884375 C136.024586,1.3446875 135.931871,1.0259375 135.748014,0.786875 C135.506014,0.47125 135.088014,0.29 134.4563,0.29 L131.439157,0.29 L131.439157,5.0321875 L132.878586,5.0321875 L132.878586,3.4275 Z" id="Fill-33"></path><polygon id="Fill-35" points="137.9675 5.031875 139.454071 5.031875 139.454071 1.4303125 140.979929 1.4303125 140.979929 0.288125 136.454214 0.288125 136.454214 1.4303125 137.9675 1.4303125"></polygon></g></g></g></g></svg> 