<?xml version="1.0" encoding="UTF-8"?> <svg xmlns="http://www.w3.org/2000/svg" xmlns:xlink="http://www.w3.org/1999/xlink" width="113px" height="28px" viewBox="0 0 113 28"><!-- Generator: Sketch 52.6 (67491) - http://www.bohemiancoding.com/sketch --><title>NBC</title><desc>Created with Sketch.</desc><defs><polygon id="path-1" points="0.42375 0.406381142 18.8333333 0.406381142 18.8333333 27.4210526 0.42375 27.4210526"></polygon></defs><g id="TEMPLATES" stroke="none" stroke-width="1" fill="none" fill-rule="evenodd"><g id="1440-Home-Latest" transform="translate(-1226.000000, -4743.000000)"><g id="Press" transform="translate(0.000000, 4572.000000)"><g id="NBC" transform="translate(1226.000000, 171.000000)"><polygon id="Fill-1" fill="#B4BBC4" points="51.0378625 0.578631579 51.0378625 26.7023158 56.1683764 26.7023158 56.1683764 12.236 71.9648347 27.5312632 71.9648347 1.50073684 66.8374597 1.50073684 66.8374597 15.5517895"></polygon><g id="Group-19" transform="translate(0.000000, 0.534158)"><path d="M80.0262861,22.3444211 L84.605925,22.3444211 C85.75005,22.2512632 87.7197028,21.2391579 87.7197028,18.9354737 C87.7197028,16.7233684 85.75005,15.6638947 84.6985222,15.6181053 L80.0262861,15.6181053 L80.0262861,22.3444211 Z M80.0262861,11.2870526 L83.9655917,11.2870526 C85.5224806,11.1023158 86.7136889,9.90547368 86.7136889,8.20021053 C86.7136889,6.40336842 85.1568,5.38968421 83.8729944,5.29810526 L80.0262861,5.29810526 L80.0262861,11.2870526 Z M74.8518278,1.05863158 L85.6605917,1.05863158 C87.3085083,1.05863158 91.979175,2.30284211 92.1628,7.41705263 C92.2993417,11.1938947 89.1855639,12.9449474 89.1855639,12.9449474 C90.8805639,13.7281053 93.4450361,15.7096842 93.4450361,19.6728421 C93.4450361,23.5428421 90.0566056,26.3975789 87.1248833,26.3975789 L74.8518278,26.3975789 L74.8518278,1.05863158 Z" id="Fill-2" fill="#B4BBC4"></path><g id="Group-6" transform="translate(94.166667, 0.000000)"><mask id="mask-2" fill="white"><use xlink:href="#path-1"></use></mask><g id="Clip-5"></g><path d="M18.8333333,6.49478947 C13.4297361,2.85531579 6.102,6.54057895 5.59820833,13.2684737 C5.41458333,21.4221579 13.3826528,24.7868947 18.8333333,21.239 L18.8333333,26.4447895 C9.26129167,30.0384737 0.469263889,23.2663684 0.42375,13.4058421 C0.469263889,5.06742105 9.62854167,-2.30468421 18.8333333,1.38057895 L18.8333333,6.49478947 Z" id="Fill-4" fill="#B4BBC4" mask="url(#mask-2)"></path></g><path d="M37.4827278,15.8944211 L24.6587972,24.5091579 L28.9637833,14.1891579 L31.0260333,9.39705263 C31.8484222,7.83073684 33.4053111,6.86284211 35.1003111,6.81705263 C36.7497972,6.81705263 38.168575,7.60178947 39.0851306,9.02915789 C40.0472,10.4581053 40.0927139,12.7617895 39.1306444,14.1891579 C38.7633944,14.8807368 38.1230611,15.4791579 37.4827278,15.8944211" id="Fill-7" fill="#B4BBC4"></path><path d="M31.1159625,7.73915789 L24.7973792,22.8054737 L24.5227264,21.146 L22.5985875,8.79863158 C22.5075597,8.06126316 22.8277264,7.41705263 23.4225458,7.00178947 L24.3391014,6.44915789 C24.3846153,6.26442105 24.1099625,6.17284211 24.0189347,6.12705263 L22.2329069,6.12705263 C22.1403097,4.33021053 22.8732403,2.71652632 24.3846153,1.75021053 C25.5287403,0.965473684 27.3147681,0.782315789 28.6440875,1.42652632 C30.3375181,2.11810526 31.4816431,3.91494737 31.5287264,5.75757895 C31.4816431,6.44915789 31.3451014,7.14073684 31.1159625,7.73915789" id="Fill-9" fill="#B4BBC4"></path><path d="M18.9344056,22.8978421 L12.70685,7.78573684 C12.0194333,6.17205263 12.3396,4.05310526 13.483725,2.71731579 C14.7204472,1.33415789 16.4625306,0.781526316 18.2485583,1.24257895 C19.7583639,1.61205263 21.1787111,3.08521053 21.5443917,4.60573684 C21.7280167,5.20415789 21.6825028,5.89573684 21.6825028,6.54152632 L18.9344056,22.8978421 Z" id="Fill-11" fill="#B4BBC4"></path><path d="M5.56195417,15.3408421 C4.2812875,14.2355789 3.7304125,12.7150526 3.9140375,11.0097895 C4.09609306,9.25873684 5.46935694,7.55505263 7.11884306,7.04821053 C8.81384306,6.54136842 10.6453847,6.95505263 11.8365931,8.20084211 C12.3388153,8.70610526 12.6605514,9.25873684 12.9352042,9.85873684 L18.9807042,24.5555789 L5.56195417,15.3408421 Z" id="Fill-13" fill="#B4BBC4"></path><path d="M4.234675,26.0757895 C2.58518889,25.8926316 1.30295278,24.9705263 0.478994444,23.45 C-0.29945,21.8836842 -0.115825,19.6715789 0.935702778,18.3357895 C2.08139722,16.9542105 3.77639722,16.2168421 5.46982778,16.5847368 C6.15881389,16.6778947 6.75206389,17 7.30293889,17.3221053 L20.2634111,26.1215789 L4.234675,26.0757895 Z" id="Fill-15" fill="#B4BBC4"></path><path d="M39.4522236,26.0757895 C41.1001403,25.8926316 42.3823764,24.9705263 43.2079042,23.45 C43.9863486,21.8836842 43.8011542,19.6715789 42.7496264,18.3357895 C41.6039319,16.9542105 39.9089319,16.2168421 38.2155014,16.5847368 C37.5280847,16.6778947 36.9332653,17 36.3839597,17.3221053 L23.4219181,26.1215789 L39.4522236,26.0757895 Z" id="Fill-17" fill="#B4BBC4"></path></g></g></g></g></g></svg> 