<svg width="72" height="72" viewBox="0 0 72 72" fill="none" xmlns="http://www.w3.org/2000/svg">
<path fill-rule="evenodd" clip-rule="evenodd" d="M41.2923 37.1769C35.0904 37.1769 30.0792 42.2242 30.0792 48.471C30.0792 54.7177 35.0904 59.7651 41.2923 59.7651C45.2724 59.7651 48.7805 57.6779 50.7656 54.5036L53.3015 56.1125C50.7867 60.1337 46.3374 62.7838 41.2923 62.7838C33.4351 62.7838 27.0822 56.3849 27.0822 48.471C27.0822 40.5571 33.4351 34.1582 41.2923 34.1582C46.3546 34.1582 50.8009 36.8377 53.3129 40.8402L50.7796 42.4532C48.7917 39.2858 45.2806 37.1769 41.2923 37.1769Z" fill="#005EE0"/>
<path fill-rule="evenodd" clip-rule="evenodd" d="M40.0555 45.3644C39.7562 45.5878 39.7115 45.7822 39.7115 45.8699C39.7115 45.9207 39.7173 45.9475 39.7199 45.9574C39.7222 45.9663 39.7241 45.9701 39.7264 45.974C39.7302 45.9804 39.765 46.0372 39.9056 46.1309C40.2318 46.3481 40.8193 46.5699 41.8271 46.8319C42.843 47.0959 43.8835 47.4192 44.6795 47.9493C45.5825 48.5506 46.2237 49.4603 46.2237 50.7189C46.2237 51.9653 45.5419 52.9831 44.6639 53.6385C43.786 54.2938 42.6412 54.6557 41.4384 54.6557C40.2355 54.6557 39.0907 54.2938 38.2128 53.6385C37.3348 52.9831 36.653 51.9653 36.653 50.7189H39.7115C39.7115 50.8067 39.7562 51.0011 40.0555 51.2245C40.3548 51.4479 40.838 51.6312 41.4384 51.6312C42.0387 51.6312 42.5219 51.4479 42.8213 51.2245C43.1205 51.0011 43.1652 50.8067 43.1652 50.7189C43.1652 50.6682 43.1594 50.6414 43.1568 50.6315C43.1545 50.6226 43.1526 50.6188 43.1503 50.6149C43.1465 50.6085 43.1117 50.5517 42.9711 50.458C42.6449 50.2408 42.0574 50.0189 41.0496 49.757C40.0337 49.493 38.9932 49.1697 38.1972 48.6396C37.2942 48.0382 36.653 47.1286 36.653 45.8699C36.653 44.6236 37.3348 43.6058 38.2128 42.9504C39.0907 42.2951 40.2355 41.9332 41.4384 41.9332C42.6412 41.9332 43.786 42.2951 44.6639 42.9504C45.5419 43.6058 46.2237 44.6236 46.2237 45.8699H43.1652C43.1652 45.7822 43.1205 45.5878 42.8213 45.3644C42.5219 45.141 42.0387 44.9577 41.4384 44.9577C40.838 44.9577 40.3548 45.141 40.0555 45.3644Z" fill="#005EE0"/>
<path fill-rule="evenodd" clip-rule="evenodd" d="M43.0334 40.8729V43.7001H39.8432V40.8729H43.0334Z" fill="#005EE0"/>
<path fill-rule="evenodd" clip-rule="evenodd" d="M43.0334 53.2418V55.7156H39.8432V53.2418H43.0334Z" fill="#005EE0"/>
<path fill-rule="evenodd" clip-rule="evenodd" d="M54.731 43.7003V52.8888H51.8952V43.7003H54.731Z" fill="#005EE0"/>
<path fill-rule="evenodd" clip-rule="evenodd" d="M48.7049 46.8808H57.9212V50.0614H48.7049V46.8808Z" fill="#005EE0"/>
<path d="M46.7536 22.7605C34.8201 22.7605 24.9565 27.6564 17.8417 34.3073C17.985 30.3104 19.0839 25.6838 21.5295 21.8899C23.2068 19.288 25.4942 17.1097 28.5212 15.7472C31.5462 14.3857 35.4467 13.7773 40.4508 14.5324C51.1133 16.1413 57.4572 17.3273 61.0476 18.1489C62.1974 18.4121 63.0338 18.631 63.6236 18.8059C62.9508 24.606 60.1901 32.2021 54.7949 38.0167C55.672 39.1812 56.407 40.4582 56.9741 41.8222C64.0632 34.7565 67.394 25.1099 67.9277 18.0964C68.015 17.7674 68.0222 17.4265 67.955 17.1017C67.7925 16.3161 67.2591 15.8838 67.1169 15.7706C66.7335 15.4653 66.2574 15.2664 65.9098 15.1346C65.1116 14.8319 63.8462 14.4754 61.9911 14.0509C58.2458 13.1938 51.7792 11.9893 41.082 10.3751C35.4062 9.51864 30.6648 10.1692 26.786 11.915C22.9093 13.6599 20.0313 16.4371 17.9817 19.6167C14.1057 25.6296 13.1113 33.1915 13.8214 38.588C8.19809 45.4145 5 53.382 5 59.9951C5 61.1562 5.94408 62.0974 7.10866 62.0974C8.27323 62.0974 9.21731 61.1562 9.21731 59.9951C9.21731 53.8239 12.728 45.5396 19.3194 38.7547C25.8566 32.0255 35.2435 26.9651 46.7536 26.9651C47.9182 26.9651 48.8623 26.0239 48.8623 24.8628C48.8623 23.7018 47.9182 22.7605 46.7536 22.7605Z" fill="#005EE0"/>
<path d="M23.205 49.7425C23.1774 49.3406 23.1633 48.9349 23.1633 48.526C23.1633 47.4825 23.2548 46.4602 23.4303 45.4669C22.7832 45.3019 22.1268 45.1216 21.4608 44.9253C20.344 44.5962 19.171 45.232 18.8409 46.3454C18.5107 47.4588 19.1485 48.6283 20.2653 48.9574C21.2622 49.2512 22.2421 49.5125 23.205 49.7425Z" fill="#005EE0"/>
</svg>
