<svg width="72" height="72" viewBox="0 0 72 72" fill="none" xmlns="http://www.w3.org/2000/svg">
<path fill-rule="evenodd" clip-rule="evenodd" d="M49.6778 36.7374C43.2173 36.7374 37.9972 41.9937 37.9972 48.499C37.9972 55.0043 43.2173 60.2606 49.6778 60.2606C53.8238 60.2606 57.4782 58.087 59.5461 54.7813L62.1877 56.4568C59.5681 60.6445 54.9332 63.4043 49.6778 63.4043C41.493 63.4043 34.8752 56.7405 34.8752 48.499C34.8752 40.2575 41.493 33.5938 49.6778 33.5938C54.9512 33.5938 59.5829 36.3842 62.1996 40.5524L59.5607 42.2322C57.4899 38.9337 53.8324 36.7374 49.6778 36.7374Z" fill="#005EE0"/>
<path fill-rule="evenodd" clip-rule="evenodd" d="M48.3894 45.2639C48.0777 45.4965 48.0312 45.699 48.0312 45.7903C48.0312 45.8432 48.0371 45.8711 48.0398 45.8814C48.0422 45.8907 48.0443 45.8947 48.0467 45.8987C48.0506 45.9054 48.0868 45.9646 48.2333 46.0621C48.5731 46.2883 49.1851 46.5193 50.2349 46.7921C51.2931 47.067 52.3771 47.4038 53.2062 47.9557C54.1469 48.582 54.8148 49.5293 54.8148 50.84C54.8148 52.138 54.1046 53.198 53.19 53.8804C52.2755 54.5628 51.0829 54.9397 49.83 54.9397C48.577 54.9397 47.3844 54.5628 46.4699 53.8804C45.5553 53.198 44.8451 52.138 44.8451 50.84H48.0312C48.0312 50.9314 48.0777 51.1339 48.3894 51.3665C48.7012 51.5992 49.2046 51.7901 49.83 51.7901C50.4553 51.7901 50.9587 51.5992 51.2705 51.3665C51.5822 51.1339 51.6288 50.9314 51.6288 50.84C51.6288 50.7872 51.6228 50.7593 51.6201 50.749C51.6177 50.7397 51.6156 50.7357 51.6132 50.7317C51.6093 50.725 51.5731 50.6658 51.4266 50.5683C51.0868 50.3421 50.4748 50.1111 49.425 49.8383C48.3668 49.5634 47.2828 49.2266 46.4537 48.6746C45.513 48.0484 44.8451 47.1011 44.8451 45.7903C44.8451 44.4924 45.5553 43.4324 46.4699 42.7499C47.3844 42.0675 48.577 41.6906 49.83 41.6906C51.0829 41.6906 52.2755 42.0675 53.19 42.7499C54.1046 43.4324 54.8148 44.4924 54.8148 45.7903H51.6288C51.6288 45.699 51.5822 45.4965 51.2705 45.2639C50.9587 45.0312 50.4553 44.8403 49.83 44.8403C49.2046 44.8403 48.7012 45.0312 48.3894 45.2639Z" fill="#005EE0"/>
<path fill-rule="evenodd" clip-rule="evenodd" d="M51.4915 40.5864V43.5307H48.1683V40.5864H51.4915Z" fill="#005EE0"/>
<path fill-rule="evenodd" clip-rule="evenodd" d="M51.4915 53.4673V56.0435H48.1683V53.4673H51.4915Z" fill="#005EE0"/>
<path fill-rule="evenodd" clip-rule="evenodd" d="M63.6768 43.5309V53.0997H60.7228V43.5309H63.6768Z" fill="#005EE0"/>
<path fill-rule="evenodd" clip-rule="evenodd" d="M57.3995 46.843H67V50.1553H57.3995V46.843Z" fill="#005EE0"/>
<path d="M6.61579 12.3958C6.86645 18.2063 9.61953 21.6468 12.9827 23.6689C16.5961 25.8414 20.9923 26.4111 23.9263 26.2489C24.6424 26.2094 25.2551 26.7547 25.2949 27.467C25.3347 28.1793 24.7865 28.7888 24.0704 28.8284C20.7711 29.0107 15.8175 28.392 11.6392 25.8799C7.37627 23.3168 4 18.8188 4 11.5214C4 10.9967 4.31903 10.5242 4.80727 10.3257C9.07901 8.58892 15.5157 7.08941 20.6136 8.6634C23.2298 9.47114 25.5177 11.0999 26.9017 13.8945C28.2241 16.5647 28.6513 20.1579 27.9637 24.8456C28.9653 26.692 29.7026 28.5587 30.2198 30.2812C30.4168 29.8422 30.6328 29.4005 30.8687 28.9601C30.3921 25.3992 31.1288 22.5836 32.7644 20.4638C34.4424 18.2891 36.9385 17.0133 39.568 16.3241C44.7802 14.9579 51.0374 15.7581 54.3571 17.1071C54.8454 17.3055 55.1646 17.7781 55.1646 18.3029C55.1646 23.8804 51.6872 28.3482 47.6533 30.8453C45.6273 32.0994 43.3945 32.9022 41.2754 33.0968C39.1624 33.2909 37.0536 32.8846 35.4463 31.5728C34.8919 31.1202 34.8112 30.3063 35.2661 29.7548C35.7211 29.2033 36.5393 29.1231 37.0938 29.5756C38.0187 30.3305 39.3756 30.6769 41.0366 30.5243C42.6915 30.3723 44.5412 29.7289 46.2811 28.6519C49.5427 26.6329 52.1874 23.2494 52.5298 19.1945C49.5121 18.2285 44.4376 17.7193 40.2298 18.8222C37.9377 19.423 36.0359 20.4671 34.8247 22.0368C34.0576 23.0309 33.5139 24.3054 33.3641 25.9519C34.5243 24.9634 35.9298 24.0577 37.3827 23.2962C40.0905 21.8769 43.2506 20.808 45.9231 20.6308C46.6387 20.5834 47.2575 21.1219 47.3052 21.8337C47.3529 22.5456 46.8115 23.1611 46.0959 23.2085C43.8986 23.3542 41.0972 24.2694 38.5934 25.5817C36.0494 26.9151 34.0956 28.5101 33.3487 29.8334C32.2934 31.7033 31.6614 33.6219 31.3423 35.1598H39.8887C38.3012 36.2016 36.9094 37.5155 35.7801 39.0349H15.6873V42.0059H34.0324C33.4825 43.2245 33.0804 44.5238 32.8491 45.881H18.3856L21.2689 58.5398H36.0809C37.2746 60.0473 38.7334 61.3364 40.3873 62.3375C40.2132 62.3881 40.0297 62.415 39.8412 62.415H19.713C18.803 62.415 18.0143 61.7883 17.8133 60.9055L14.3911 45.881H13.7394C12.6637 45.881 11.7916 45.0135 11.7916 43.9434V37.0973C11.7916 36.0272 12.6637 35.1598 13.7394 35.1598H28.603C28.5779 35.0801 28.5602 34.9968 28.5509 34.9106C28.3013 32.6057 27.3915 29.1031 25.4811 25.7165C23.064 21.4315 19.1106 17.4334 12.9525 16.1439C12.2507 15.9969 11.8015 15.3118 11.9493 14.6137C12.097 13.9156 12.7857 13.4689 13.4875 13.6158C19.0006 14.7703 22.945 17.8185 25.6817 21.3401C25.7643 18.5972 25.3211 16.5489 24.5718 15.0361C23.5503 12.9735 21.8889 11.7622 19.8437 11.1307C15.896 9.91186 10.6302 10.9024 6.61579 12.3958Z" fill="#005EE0"/>
</svg>
