<svg width="72" height="72" viewBox="0 0 72 72" fill="none" xmlns="http://www.w3.org/2000/svg">
<path fill-rule="evenodd" clip-rule="evenodd" d="M42.1172 20.0905C42.1172 18.9481 43.0433 18.022 44.1857 18.022L57.2139 18.022C58.3563 18.022 59.2824 18.9481 59.2824 20.0905C59.2824 21.233 58.3563 22.1591 57.2139 22.1591L44.1857 22.1591C43.0433 22.1591 42.1172 21.233 42.1172 20.0905Z" fill="#005EE0"/>
<path fill-rule="evenodd" clip-rule="evenodd" d="M42.1172 28.7761C42.1172 27.6336 43.0433 26.7075 44.1857 26.7075L57.2139 26.7075C58.3563 26.7075 59.2824 27.6336 59.2824 28.7761C59.2824 29.9185 58.3563 30.8446 57.2139 30.8446L44.1857 30.8446C43.0433 30.8446 42.1172 29.9185 42.1172 28.7761Z" fill="#005EE0"/>
<path fill-rule="evenodd" clip-rule="evenodd" d="M24.9229 38.0817C24.9229 36.9393 25.849 36.0132 26.9914 36.0132L57.2132 36.0132C58.3556 36.0132 59.2817 36.9393 59.2817 38.0817C59.2817 39.2242 58.3556 40.1503 57.2132 40.1503L26.9914 40.1503C25.849 40.1503 24.9229 39.2242 24.9229 38.0817Z" fill="#005EE0"/>
<path fill-rule="evenodd" clip-rule="evenodd" d="M24.9229 45.8811C24.9229 44.7386 25.849 43.8125 26.9914 43.8125L57.2132 43.8125C58.3556 43.8125 59.2817 44.7386 59.2817 45.8811C59.2817 47.0235 58.3556 47.9496 57.2132 47.9496L26.9914 47.9496C25.849 47.9496 24.9229 47.0235 24.9229 45.8811Z" fill="#005EE0"/>
<path fill-rule="evenodd" clip-rule="evenodd" d="M62.1088 11.7844C52.3469 11.7436 22.6967 11.62 22.2946 11.62V8C22.7068 8 52.3718 8.12372 62.1239 8.16443C64.8453 8.17579 67 10.3931 67 13.0822V58.283C67 60.9925 64.8042 63.2008 62.0872 63.2008H13.2074C13.1306 63.2008 13.0272 63.2095 12.8547 63.2342C11.3195 63.4537 9.10487 63.2828 7.22383 61.9138C5.25466 60.4807 4 57.9938 4 54.3007V23.7253C4 21.012 6.19954 18.8125 8.91281 18.8125H12.9001C13.8998 18.8125 14.7101 19.6228 14.7101 20.6225C14.7101 21.6221 13.8998 22.4325 12.9001 22.4325H8.91281C8.19879 22.4325 7.61997 23.0113 7.61997 23.7253V54.3007C7.61997 57.1354 8.53911 58.3939 9.35396 58.9869C10.2569 59.6441 11.4365 59.7802 12.3422 59.6506C12.5742 59.6175 12.8755 59.5809 13.2074 59.5809H62.0872C62.7974 59.5809 63.38 59.0008 63.38 58.283V13.0822C63.38 12.3541 62.8046 11.7873 62.1088 11.7844Z" fill="#005EE0"/>
<path fill-rule="evenodd" clip-rule="evenodd" d="M15.8762 9.80998C15.8762 8.81036 16.6866 8 17.6862 8H22.3834V11.62H19.4962V53.3748C19.5593 54.8965 19.2615 57.1233 18.2576 59.0939C17.2129 61.1446 15.3065 63.0595 12.2144 63.327L11.9023 59.7205C13.4189 59.5893 14.3855 58.7198 15.0321 57.4507C15.7096 56.1208 15.9255 54.5166 15.8782 53.4985C15.8769 53.4705 15.8762 53.4425 15.8762 53.4144V9.80998Z" fill="#005EE0"/>
<path fill-rule="evenodd" clip-rule="evenodd" d="M35.0412 20.4461H27.5393C27.4821 20.4461 27.4358 20.4924 27.4358 20.5495V28.2287C27.4358 28.2858 27.4821 28.3321 27.5393 28.3321H35.0412C35.0983 28.3321 35.1446 28.2858 35.1446 28.2287V20.5495C35.1446 20.4924 35.0983 20.4461 35.0412 20.4461ZM27.5393 17.3433C25.7685 17.3433 24.333 18.7788 24.333 20.5495V28.2287C24.333 29.9995 25.7685 31.4349 27.5393 31.4349H35.0412C36.8119 31.4349 38.2474 29.9995 38.2474 28.2287V20.5495C38.2474 18.7788 36.8119 17.3433 35.0412 17.3433H27.5393Z" fill="#005EE0"/>
</svg>
