<svg width="72" height="72" viewBox="0 0 72 72" fill="none" xmlns="http://www.w3.org/2000/svg">
<path fill-rule="evenodd" clip-rule="evenodd" d="M19.2159 8.01094C20.0888 6.82579 21.5507 6 23.6875 6C25.8243 6 27.2863 6.82579 28.1592 8.01094C28.6432 8.66806 28.9129 9.39 29.0419 10.0541C31.096 10.2549 32.5655 10.9912 33.5463 12.0088C34.6764 13.1815 35.036 14.6054 34.9964 15.6294C34.9705 16.3005 34.416 16.8311 33.7407 16.8311H16.3152C15.7144 16.8311 15.1976 16.4082 15.082 15.8219C14.6769 13.7671 15.218 12.2279 16.2999 11.2332C16.9152 10.6675 17.6409 10.3379 18.313 10.1637C18.4329 9.47003 18.7051 8.70439 19.2159 8.01094ZM21.2434 9.48795C20.8405 10.035 20.725 10.7272 20.7529 11.171C20.7742 11.5108 20.6553 11.8446 20.4235 12.0951C20.1917 12.3457 19.8671 12.4913 19.5249 12.4984C19.0636 12.508 18.4296 12.6791 18.006 13.0685C17.7646 13.2905 17.5042 13.6609 17.4647 14.3317H32.1697C32.06 14.1318 31.9166 13.9301 31.7318 13.7384C31.1492 13.1338 30.0267 12.4987 27.8764 12.4987C27.5295 12.4987 27.198 12.3561 26.9605 12.1046C26.723 11.8532 26.6005 11.5153 26.6222 11.171C26.65 10.7272 26.5345 10.035 26.1316 9.48795C25.7772 9.00677 25.1028 8.4995 23.6875 8.4995C22.2722 8.4995 21.5978 9.00677 21.2434 9.48795Z" fill="#005EE0"/>
<path fill-rule="evenodd" clip-rule="evenodd" d="M41.867 17.581C41.867 17.1209 42.2421 16.7478 42.7048 16.7478H47.2287C47.6914 16.7478 48.0665 17.1209 48.0665 17.581V22.2467C48.0665 22.7069 47.6914 23.0799 47.2287 23.0799H42.7048C42.2421 23.0799 41.867 22.7069 41.867 22.2467V17.581ZM43.5425 18.4142V21.4136H46.3909V18.4142H43.5425Z" fill="#005EE0"/>
<path fill-rule="evenodd" clip-rule="evenodd" d="M50.4122 16.7478C49.9495 16.7478 49.5745 17.1209 49.5745 17.581V22.2467C49.5745 22.7069 49.9495 23.0799 50.4122 23.0799H54.9362C55.3989 23.0799 55.7739 22.7069 55.7739 22.2467V17.581C55.7739 17.1209 55.3989 16.7478 54.9362 16.7478H50.4122ZM51.25 21.4136V18.4142H54.0984V21.4136H51.25Z" fill="#005EE0"/>
<path fill-rule="evenodd" clip-rule="evenodd" d="M57.2819 17.581C57.2819 17.1209 57.657 16.7478 58.1197 16.7478H62.6436C63.1063 16.7478 63.4814 17.1209 63.4814 17.581V22.2467C63.4814 22.7069 63.1063 23.0799 62.6436 23.0799H58.1197C57.657 23.0799 57.2819 22.7069 57.2819 22.2467V17.581ZM58.9574 18.4142V21.4136H61.8058V18.4142H58.9574Z" fill="#005EE0"/>
<path fill-rule="evenodd" clip-rule="evenodd" d="M42.7048 26.4959C42.2421 26.4959 41.867 26.8689 41.867 27.329V31.9948C41.867 32.4549 42.2421 32.8279 42.7048 32.8279H47.2287C47.6914 32.8279 48.0665 32.4549 48.0665 31.9948V27.329C48.0665 26.8689 47.6914 26.4959 47.2287 26.4959H42.7048ZM46.3909 31.1616H43.5425V28.1622H46.3909V31.1616Z" fill="#005EE0"/>
<path fill-rule="evenodd" clip-rule="evenodd" d="M49.5745 27.329C49.5745 26.8689 49.9495 26.4959 50.4122 26.4959H54.9362C55.3989 26.4959 55.7739 26.8689 55.7739 27.329V31.9948C55.7739 32.4549 55.3989 32.8279 54.9362 32.8279H50.4122C49.9495 32.8279 49.5745 32.4549 49.5745 31.9948V27.329ZM54.0984 28.1622H51.25V31.1616H54.0984V28.1622Z" fill="#005EE0"/>
<path fill-rule="evenodd" clip-rule="evenodd" d="M58.1197 26.4959C57.657 26.4959 57.2819 26.8689 57.2819 27.329V31.9948C57.2819 32.4549 57.657 32.8279 58.1197 32.8279H62.6436C63.1063 32.8279 63.4814 32.4549 63.4814 31.9948V27.329C63.4814 26.8689 63.1063 26.4959 62.6436 26.4959H58.1197ZM61.8058 31.1616H58.9574V28.1622H61.8058V31.1616Z" fill="#005EE0"/>
<path fill-rule="evenodd" clip-rule="evenodd" d="M41.867 36.9937C41.867 36.5336 42.2421 36.1606 42.7048 36.1606H47.2287C47.6914 36.1606 48.0665 36.5336 48.0665 36.9937V41.6595C48.0665 42.1196 47.6914 42.4926 47.2287 42.4926H42.7048C42.2421 42.4926 41.867 42.1196 41.867 41.6595V36.9937ZM46.3909 37.8269H43.5425V40.8263H46.3909V37.8269Z" fill="#005EE0"/>
<path fill-rule="evenodd" clip-rule="evenodd" d="M50.4122 36.1606C49.9495 36.1606 49.5745 36.5336 49.5745 36.9937V41.6595C49.5745 42.1196 49.9495 42.4926 50.4122 42.4926H54.9362C55.3989 42.4926 55.7739 42.1196 55.7739 41.6595V36.9937C55.7739 36.5336 55.3989 36.1606 54.9362 36.1606H50.4122ZM54.0984 40.8263H51.25V37.8269H54.0984V40.8263Z" fill="#005EE0"/>
<path fill-rule="evenodd" clip-rule="evenodd" d="M57.2819 36.9937C57.2819 36.5336 57.657 36.1606 58.1197 36.1606H62.6436C63.1063 36.1606 63.4814 36.5336 63.4814 36.9937V41.6595C63.4814 42.1196 63.1063 42.4926 62.6436 42.4926H58.1197C57.657 42.4926 57.2819 42.1196 57.2819 41.6595V36.9937ZM61.8058 37.8269H58.9574V40.8263H61.8058V37.8269Z" fill="#005EE0"/>
<path fill-rule="evenodd" clip-rule="evenodd" d="M65.7433 13.2485H64.6543V10.2491C64.6543 9.55893 64.0916 8.99939 63.3976 8.99939H42.0346C41.3405 8.99939 40.7779 9.55893 40.7779 10.2491V13.2485H39.605C38.911 13.2485 38.3484 13.8081 38.3484 14.4983V23.6631H25.0279C24.3339 23.6631 23.7713 24.2226 23.7713 24.9129V37.4034C24.6881 37.9581 25.5318 38.6204 26.2846 39.3728V26.1626H38.3484V57.8229H35.2487V50.5743C35.2487 50.1142 34.8736 49.7412 34.4109 49.7412H30.0941C29.9317 51.7244 29.3273 53.5833 28.379 55.2203V57.8229H26.4035C25.6805 58.5641 24.8705 59.2211 23.99 59.7774C24.2164 60.1065 24.5968 60.3224 25.0279 60.3224H65.7433C66.4374 60.3224 67 59.7628 67 59.0726V14.4983C67 13.8081 66.4374 13.2485 65.7433 13.2485ZM48.0665 51.4075H47.3125C46.8498 51.4075 46.4747 51.0345 46.4747 50.5743V47.2417C46.4747 46.7815 46.8498 46.4085 47.3125 46.4085H58.1197C58.5824 46.4085 58.9574 46.7815 58.9574 47.2417V50.5743C58.9574 51.0345 58.5824 51.4075 58.1197 51.4075H57.2819V57.8229H64.4867V15.748H40.8617V57.8229H48.0665V51.4075ZM43.2912 13.2485H62.141V11.4989H43.2912V13.2485ZM49.742 51.4075V57.4063H55.6064V51.4075H49.742ZM57.2819 49.7412V48.0748H48.1503V49.7412H57.2819ZM30.0545 51.4075V57.4063H33.5731V51.4075H30.0545Z" fill="#005EE0"/>
<path d="M29.7326 45.4109C29.9327 45.1895 30.0545 44.8967 30.0545 44.5755V42.326C30.0545 41.6358 29.4919 41.0763 28.7979 41.0763C28.4707 41.0763 28.1728 41.2006 27.9492 41.4043C28.7543 42.6147 29.3637 43.9651 29.7326 45.4109Z" fill="#005EE0"/>
<path d="M34.4109 41.0763C35.1049 41.0763 35.6675 41.6358 35.6675 42.326V44.5755C35.6675 45.2658 35.1049 45.8253 34.4109 45.8253C33.7169 45.8253 33.1542 45.2658 33.1542 44.5755V42.326C33.1542 41.6358 33.7169 41.0763 34.4109 41.0763Z" fill="#005EE0"/>
<path d="M30.0545 35.8273C30.0545 35.1371 29.4919 34.5776 28.7979 34.5776C28.1038 34.5776 27.5412 35.1371 27.5412 35.8273V38.0769C27.5412 38.7671 28.1038 39.3266 28.7979 39.3266C29.4919 39.3266 30.0545 38.7671 30.0545 38.0769V35.8273Z" fill="#005EE0"/>
<path d="M34.4109 34.5776C35.1049 34.5776 35.6675 35.1371 35.6675 35.8273V38.0769C35.6675 38.7671 35.1049 39.3266 34.4109 39.3266C33.7169 39.3266 33.1542 38.7671 33.1542 38.0769V35.8273C33.1542 35.1371 33.7169 34.5776 34.4109 34.5776Z" fill="#005EE0"/>
<path d="M30.0545 29.6619C30.0545 28.9717 29.4919 28.4121 28.7979 28.4121C28.1038 28.4121 27.5412 28.9717 27.5412 29.6619V31.9114C27.5412 32.6017 28.1038 33.1612 28.7979 33.1612C29.4919 33.1612 30.0545 32.6017 30.0545 31.9114V29.6619Z" fill="#005EE0"/>
<path d="M34.4109 28.4121C35.1049 28.4121 35.6675 28.9717 35.6675 29.6619V31.9114C35.6675 32.6017 35.1049 33.1612 34.4109 33.1612C33.7169 33.1612 33.1542 32.6017 33.1542 31.9114V29.6619C33.1542 28.9717 33.7169 28.4121 34.4109 28.4121Z" fill="#005EE0"/>
<path fill-rule="evenodd" clip-rule="evenodd" d="M15.2913 40.053C10.3633 40.053 6.38145 44.0536 6.38145 49.0049C6.38145 53.9562 10.3633 57.9568 15.2913 57.9568C18.4539 57.9568 21.2414 56.3025 22.8188 53.7865L24.8338 55.0617C22.8356 58.249 19.3001 60.3495 15.2913 60.3495C9.04807 60.3495 4 55.2776 4 49.0049C4 42.7322 9.04807 37.6603 15.2913 37.6603C19.3138 37.6603 22.8469 39.7841 24.8429 42.9566L22.8299 44.2351C21.2504 41.7246 18.4604 40.053 15.2913 40.053Z" fill="#005EE0"/>
<path fill-rule="evenodd" clip-rule="evenodd" d="M14.3086 46.5426C14.0708 46.7196 14.0353 46.8737 14.0353 46.9433C14.0353 46.9835 14.0399 47.0048 14.0419 47.0126C14.0438 47.0196 14.0453 47.0227 14.0472 47.0258C14.0502 47.0309 14.0778 47.0759 14.1895 47.1501C14.4487 47.3223 14.9155 47.4981 15.7163 47.7057C16.5236 47.915 17.3504 48.1713 17.9828 48.5914C18.7004 49.0681 19.2099 49.7891 19.2099 50.7867C19.2099 51.7746 18.6681 52.5813 17.9705 53.1008C17.2729 53.6202 16.3632 53.907 15.4074 53.907C14.4517 53.907 13.542 53.6202 12.8444 53.1008C12.1468 52.5813 11.605 51.7746 11.605 50.7867H14.0353C14.0353 50.8562 14.0708 51.0103 14.3086 51.1874C14.5464 51.3645 14.9304 51.5098 15.4074 51.5098C15.8845 51.5098 16.2684 51.3645 16.5063 51.1874C16.7441 51.0103 16.7796 50.8562 16.7796 50.7867C16.7796 50.7465 16.775 50.7252 16.773 50.7174C16.7711 50.7103 16.7696 50.7073 16.7677 50.7042C16.7647 50.6991 16.7371 50.6541 16.6253 50.5799C16.3662 50.4077 15.8994 50.2319 15.0986 50.0243C14.2913 49.815 13.4645 49.5587 12.8321 49.1386C12.1145 48.6619 11.605 47.9409 11.605 46.9433C11.605 45.9554 12.1468 45.1486 12.8444 44.6292C13.542 44.1098 14.4517 43.8229 15.4074 43.8229C16.3632 43.8229 17.2729 44.1098 17.9705 44.6292C18.6681 45.1486 19.2099 45.9554 19.2099 46.9433H16.7796C16.7796 46.8737 16.7441 46.7196 16.5063 46.5426C16.2684 46.3655 15.8845 46.2202 15.4074 46.2202C14.9304 46.2202 14.5464 46.3655 14.3086 46.5426Z" fill="#005EE0"/>
<path fill-rule="evenodd" clip-rule="evenodd" d="M16.6749 42.9825V45.2234H14.1399V42.9825H16.6749Z" fill="#005EE0"/>
<path fill-rule="evenodd" clip-rule="evenodd" d="M16.6749 52.7863V54.7471H14.1399V52.7863H16.6749Z" fill="#005EE0"/>
<path fill-rule="evenodd" clip-rule="evenodd" d="M25.9697 45.2236V52.5065H23.7164V45.2236H25.9697Z" fill="#005EE0"/>
<path fill-rule="evenodd" clip-rule="evenodd" d="M21.1814 47.7445H28.5046V50.2655H21.1814V47.7445Z" fill="#005EE0"/>
</svg>
