<?xml version="1.0" encoding="UTF-8"?>
<svg xmlns="http://www.w3.org/2000/svg" width="142" height="45" viewBox="0 0 142 45" fill="none">
  <path d="M76.952 44.551C76.9543 43.315 76.9561 42.0794 76.9576 40.8442C76.9576 36.336 76.9576 31.8275 76.9576 27.3186V26.9735C77.0683 26.968 77.1586 26.9597 77.2477 26.9591C79.3963 26.9591 81.5453 26.9591 83.6946 26.9591C85.2272 26.9591 86.7027 27.2267 88.0753 27.939C89.9279 28.9 91.172 30.3956 91.8015 32.3703C92.6143 34.9184 92.5728 37.4664 91.4876 39.9308C90.4184 42.3586 88.4894 43.7661 85.9215 44.3245C85.4465 44.4275 84.9604 44.4779 84.482 44.5527L76.952 44.551ZM79.9612 41.9243C81.5475 41.8917 83.1139 41.9637 84.6558 41.803C86.9541 41.5632 88.4296 40.2277 89.0487 37.9937C89.393 36.7507 89.4124 35.4839 89.2053 34.2132C89.0359 33.168 88.6738 32.2014 87.9873 31.3822C87.0128 30.2234 85.7172 29.6916 84.2461 29.624C82.8752 29.5609 81.4993 29.598 80.1257 29.593C80.0709 29.598 80.0167 29.6075 79.9635 29.6212L79.9612 41.9243Z" fill="#b4bbc4"></path>
  <path d="M117.575 44.551C117.583 44.4224 117.597 44.2945 117.597 44.1665C117.597 38.5605 117.597 32.9543 117.597 27.3479V26.9762C117.702 26.9696 117.781 26.9596 117.861 26.9596C119.863 26.9596 121.864 26.9596 123.866 26.9596C124.87 26.9596 125.851 27.0997 126.781 27.4991C128.498 28.2375 129.406 29.5746 129.634 31.4004C129.739 32.2445 129.697 33.1004 129.509 33.9301C129.087 35.8173 127.859 36.8659 126.004 37.2425C125.941 37.2553 125.877 37.2664 125.815 37.2813C125.778 37.2936 125.743 37.308 125.708 37.3245C125.819 37.4575 125.925 37.5815 126.03 37.7045C127.904 39.8995 129.777 42.0949 131.65 44.2906C131.722 44.3743 131.787 44.4634 131.854 44.5504H128.532C128.485 44.4729 128.435 44.398 128.38 44.3261C126.553 42.1436 124.715 39.9667 122.898 37.7754C122.67 37.4985 122.443 37.3821 122.087 37.4032C121.567 37.4336 121.045 37.4109 120.509 37.4109V44.551H117.575ZM120.522 34.9061C120.554 34.9144 120.587 34.9204 120.62 34.9238C121.706 34.9238 122.794 34.9316 123.881 34.9189C124.185 34.913 124.487 34.8759 124.783 34.8081C126.011 34.5311 126.729 33.6604 126.804 32.3775C126.877 31.1345 126.25 30.1363 125.119 29.753C124.771 29.6341 124.407 29.5675 124.039 29.5553C122.925 29.527 121.81 29.5386 120.695 29.5353C120.639 29.5353 120.589 29.5453 120.522 29.5514V34.9061Z" fill="#b4bbc4"></path>
  <path d="M97.8177 44.5514C97.8177 44.4318 97.8266 44.3116 97.8266 44.1919C97.8266 38.5789 97.8266 32.964 97.8266 27.3473V26.9767H108.789V29.5801H100.862V33.8137H107.968V36.4171H100.855V41.881H108.832V44.547L97.8177 44.5514Z" fill="#b4bbc4"></path>
  <path d="M141.762 14.6743C141.715 14.8959 141.675 15.1224 141.62 15.3435C141.186 17.0933 140.021 18.164 138.381 18.7606C136.685 19.3776 134.945 19.3555 133.198 19.0165C132.108 18.8144 131.065 18.4116 130.122 17.8283C129.944 17.7175 129.857 17.5973 129.861 17.3691C129.877 16.4197 129.868 15.4703 129.868 14.4755C129.96 14.5369 130.026 14.5757 130.089 14.6222C131.556 15.76 133.202 16.4336 135.068 16.5277C135.903 16.5704 136.729 16.5106 137.509 16.1777C138.314 15.8348 138.804 15.2471 138.867 14.3547C138.927 13.4856 138.63 12.7605 137.87 12.3091C137.343 12.0077 136.795 11.7452 136.23 11.5236C135.071 11.0506 133.889 10.634 132.742 10.1416C132.275 9.94108 131.838 9.63919 131.436 9.32235C130.178 8.33084 129.711 6.97484 129.741 5.41833C129.781 3.27743 131.003 1.63008 133.157 0.969254C135.785 0.163302 138.294 0.54329 140.657 1.92421C140.743 1.97406 140.836 2.10035 140.837 2.1923C140.85 3.14172 140.844 4.09169 140.842 5.04166C140.836 5.07733 140.826 5.11223 140.812 5.1458L140.339 4.8068C138.788 3.69896 137.077 3.11403 135.151 3.27522C134.518 3.33061 133.914 3.48017 133.393 3.8668C132.404 4.6013 132.33 6.17886 133.282 6.95712C133.646 7.25402 134.088 7.47725 134.526 7.65506C135.849 8.1907 137.204 8.64713 138.513 9.21655C139.135 9.48798 139.722 9.89233 140.245 10.3316C141.153 11.0949 141.593 12.1307 141.716 13.3034C141.729 13.3741 141.746 13.4439 141.768 13.5122L141.762 14.6743Z" fill="#b4bbc4"></path>
  <path d="M50.0541 44.5511C49.5558 44.4768 49.0525 44.4176 48.5559 44.3256C47.4701 44.1256 46.4392 43.7678 45.4836 43.2034C45.3125 43.1026 45.2488 42.9862 45.2516 42.7852C45.2626 41.8928 45.2565 40.9999 45.2565 40.0455C45.3745 40.1258 45.4531 40.1768 45.5295 40.2316C47.1994 41.4314 49.0558 42.0496 51.1216 41.9975C51.8535 41.9792 52.5656 41.859 53.2333 41.52C54.628 40.8121 54.6014 38.8429 53.462 38.1461C52.9083 37.8082 52.3048 37.5418 51.6991 37.3052C50.5419 36.8538 49.357 36.4744 48.2043 36.0096C47.7232 35.8169 47.2775 35.5183 46.8456 35.2242C44.5462 33.661 44.2527 29.3532 47.5521 27.7296C48.7297 27.1502 49.9783 26.9342 51.2772 26.9614C52.9432 26.9957 54.5261 27.3574 55.9956 28.1706C56.1999 28.2813 56.2724 28.4104 56.2724 28.6453C56.2575 29.5094 56.2663 30.3741 56.2663 31.2963L55.8494 31.0111C54.2703 29.9287 52.5412 29.3676 50.6133 29.5022C49.9628 29.5476 49.3343 29.685 48.7862 30.0639C47.7863 30.7551 47.7209 32.2496 48.691 32.983C49.0658 33.2661 49.5132 33.476 49.9556 33.6444C51.2811 34.1479 52.6342 34.5788 53.947 35.1117C54.5499 35.3643 55.1133 35.7025 55.6196 36.116C56.9025 37.1485 57.2989 38.5709 57.1605 40.1496C56.9844 42.1687 55.758 43.379 53.9381 44.032C53.2698 44.2719 52.5429 44.3483 51.8425 44.499L51.6033 44.5511H50.0541Z" fill="#b4bbc4"></path>
  <path d="M11.0352 44.5512C11.0435 44.4233 11.0596 44.2953 11.0596 44.1679C11.0596 38.5652 11.0596 32.9627 11.0596 27.3604V26.9698H14.355V44.5512H11.0352Z" fill="#b4bbc4"></path>
  <path d="M64.887 44.5514V26.9772H68.1498C68.1553 27.0647 68.1658 27.1528 68.1658 27.2408C68.1658 32.9377 68.1658 38.6344 68.1658 44.3309C68.1658 44.4046 68.1569 44.4777 68.152 44.5525L64.887 44.5514Z" fill="#b4bbc4"></path>
  <path d="M0.09021 18.9623V0.898414C0.145174 0.888872 0.200628 0.882401 0.256311 0.879028C2.47875 0.884567 4.70119 0.869058 6.92307 0.906724C8.05976 0.925558 9.15326 1.19532 10.1344 1.8002C11.4903 2.63384 12.1038 3.89844 12.1879 5.44664C12.2505 6.60267 12.0141 7.68282 11.2777 8.61395C10.9289 9.05376 10.4725 9.39605 9.95276 9.60769C9.98036 9.63495 10.011 9.65893 10.0441 9.67914C11.8214 10.4546 12.7017 11.8394 12.7571 13.746C12.8014 15.3441 12.3142 16.7466 11.0053 17.7669C10.1604 18.4261 9.17319 18.7446 8.1262 18.8747C7.61337 18.9332 7.0976 18.962 6.58146 18.9612C4.53287 18.9706 2.48429 18.965 0.439577 18.965L0.09021 18.9623ZM2.97761 16.3007C3.02269 16.3106 3.06837 16.3177 3.11436 16.3217C4.35957 16.3217 5.60589 16.3251 6.84943 16.3134C7.14439 16.3104 7.43833 16.2783 7.727 16.2176C8.70479 16.0115 9.46443 15.508 9.73074 14.5004C9.99706 13.4929 9.89684 12.5302 9.09623 11.763C8.53481 11.2246 7.81559 11.0396 7.06315 11.0263C5.76258 11.003 4.46089 11.0146 3.16143 11.0135C3.0993 11.0185 3.03766 11.0283 2.97705 11.0429L2.97761 16.3007ZM2.97761 8.45885C3.02521 8.46755 3.07328 8.47346 3.12156 8.47658C4.26434 8.47658 5.40767 8.4932 6.55045 8.46273C6.97349 8.44468 7.39232 8.37112 7.79621 8.24393C8.51986 8.02569 9.02481 7.55264 9.2269 6.80374C9.3734 6.26731 9.3755 5.70166 9.23299 5.16414C9.0835 4.58752 8.74687 4.13164 8.19541 3.91229C7.75746 3.7378 7.2813 3.5888 6.81566 3.5672C5.59205 3.5118 4.36511 3.53119 3.13928 3.52233C3.0845 3.52764 3.03036 3.53821 2.97761 3.5539V8.45885Z" fill="#b4bbc4"></path>
  <path d="M71.3688 0.598755L83.42 12.4022V0.869622H86.2775V19.2121L74.3337 7.17377L74.2191 7.24467V18.9224H71.3688V0.598755Z" fill="#b4bbc4"></path>
  <path d="M26.0912 33.1814V44.2559H23.17V26.9869L35.5678 38.1279V27.2478H38.5023V44.5301L26.0912 33.1814Z" fill="#b4bbc4"></path>
  <path d="M19.188 0.895271H22.1524V1.23704C22.1524 4.62074 22.1524 8.00482 22.1524 11.3893C22.1524 12.3165 22.2338 13.2305 22.5505 14.1096C23.0842 15.5907 24.2314 16.451 25.8072 16.4953C26.3725 16.5114 26.9582 16.4842 27.5053 16.354C28.895 16.0217 29.648 15.0368 30.0184 13.7141C30.2365 12.9358 30.2952 12.1376 30.2952 11.3322C30.2952 7.9666 30.2952 4.60099 30.2952 1.23538V0.894165H33.2734V1.20713C33.2734 4.69239 33.2734 8.17783 33.2734 11.6635C33.2734 12.8876 33.1322 14.0913 32.6793 15.2407C31.933 17.134 30.582 18.372 28.6265 18.9309C27.1028 19.3754 25.4856 19.3881 23.9551 18.9674C21.5096 18.3027 20.0445 16.6609 19.4704 14.2325C19.2891 13.4613 19.1944 12.6723 19.188 11.88C19.1587 8.30283 19.1747 4.72507 19.1753 1.1473C19.1736 1.06698 19.1819 0.986113 19.188 0.895271Z" fill="#b4bbc4"></path>
  <path d="M104.903 18.9546H94.2908V0.903442H104.896V3.57887H97.2065V7.92215H104.103V10.6175H97.2076V16.2248H104.904L104.903 18.9546Z" fill="#b4bbc4"></path>
  <path d="M111.873 14.5599C112.607 14.9809 113.304 15.4539 114.06 15.7979C115.661 16.5269 117.341 16.775 119.073 16.3291C119.887 16.1192 120.542 15.675 120.784 14.8075C121.075 13.77 120.729 12.794 119.784 12.2595C119.099 11.8717 118.348 11.602 117.62 11.2951C116.512 10.8276 115.35 10.4604 114.29 9.89647C111.865 8.60362 110.986 5.5975 112.273 3.23559C112.973 1.94939 114.114 1.20659 115.494 0.858728C118.006 0.225599 120.391 0.600047 122.632 1.89954C122.701 1.93243 122.758 1.98581 122.796 2.05242C122.834 2.11902 122.85 2.19562 122.843 2.27178C122.831 3.21953 122.838 4.16729 122.838 5.16268C122.727 5.08458 122.644 5.03251 122.567 4.97545C121.388 4.09528 120.101 3.46769 118.622 3.29929C117.754 3.2007 116.889 3.20125 116.055 3.50591C114.906 3.92578 114.39 4.90012 114.694 6.05393C114.757 6.31098 114.876 6.55076 115.043 6.75581C115.21 6.96087 115.421 7.12604 115.66 7.23932C116.355 7.57167 117.078 7.84863 117.793 8.14442C118.881 8.59199 120.007 8.9681 121.056 9.49211C122.589 10.2565 123.513 11.5206 123.707 13.2549C124.023 16.0738 122.711 18.1205 119.983 18.8777C117.256 19.6349 114.618 19.2588 112.147 17.8419C111.94 17.7233 111.861 17.5838 111.865 17.3373C111.883 16.4 111.873 15.4606 111.873 14.5599Z" fill="#b4bbc4"></path>
  <path d="M51.2678 5.19809C50.4616 4.57992 49.6721 4.07308 48.7829 3.74461C47.4574 3.25384 46.1003 3.08323 44.7156 3.44826C43.9897 3.63937 43.3968 4.03043 43.1432 4.78598C42.811 5.76531 43.1576 6.74796 44.0844 7.2487C44.7527 7.6093 45.4813 7.85801 46.1884 8.14716C47.2448 8.5781 48.3322 8.94314 49.3565 9.43779C50.8104 10.1402 51.796 11.2751 52.0695 12.9136C52.3795 14.7637 52.0745 16.4465 50.5878 17.7488C49.702 18.5243 48.6434 18.9369 47.4945 19.1159C45.1851 19.4748 42.9848 19.1408 40.8986 18.0601C40.4501 17.8274 40.2342 17.5616 40.2785 17.0193C40.3383 16.2992 40.2934 15.5641 40.2934 14.8363V14.4818C40.4955 14.6302 40.6533 14.7493 40.8139 14.864C42.399 15.9984 44.157 16.595 46.1158 16.5479C46.7622 16.5422 47.4014 16.4117 47.9983 16.1635C49.6881 15.4384 49.6593 13.1374 48.3549 12.3769C47.6207 11.9493 46.8151 11.6407 46.0295 11.305C44.9221 10.8314 43.7733 10.4448 42.7002 9.90585C41.3941 9.24945 40.5326 8.17762 40.2591 6.70531C39.7226 3.81994 41.1223 1.57436 43.9781 0.857584C46.458 0.234979 48.8211 0.623831 51.0374 1.90338C51.2107 2.00364 51.2711 2.12163 51.2683 2.32159C51.2572 3.17906 51.2639 4.03874 51.2639 4.89344L51.2678 5.19809Z" fill="#b4bbc4"></path>
  <path d="M59.8757 0.894165H62.8173V18.9442H59.8757V0.894165Z" fill="#b4bbc4"></path>
</svg>
