<?xml version="1.0" encoding="UTF-8"?>
<svg xmlns="http://www.w3.org/2000/svg" width="168" height="28" viewBox="0 0 168 28" fill="none">
  <path d="M18.2849 9.20328C18.2849 6.74654 18.3152 4.28981 18.2707 1.83307C18.2524 0.911797 18.5016 0.522412 19.5205 0.552519C21.7791 0.620761 24.0397 0.598683 26.2983 0.552519C27.0903 0.540476 27.382 0.831512 27.38 1.59824C27.3678 9.88503 27.3678 18.1725 27.38 26.4606C27.38 27.2916 27.0498 27.5565 26.2274 27.5425C23.8675 27.5023 21.5056 27.5626 19.1478 27.5003C18.5983 27.4719 18.0749 27.2596 17.663 26.8982C14.8899 24.2347 12.1573 21.5191 9.32139 18.7372C9.28493 19.0583 9.23429 19.2992 9.23226 19.54C9.23226 21.8362 9.20795 24.1324 9.23226 26.4285C9.24441 27.2314 8.98716 27.5706 8.13031 27.5565C5.80285 27.5164 3.47133 27.5244 1.14995 27.5565C0.424767 27.5565 0.118895 27.3257 0.120921 26.577C0.134425 18.2233 0.134425 9.86965 0.120921 1.51594C0.120921 0.82549 0.394382 0.570585 1.0831 0.576606C3.57869 0.596678 6.07428 0.554527 8.57798 0.612733C9.01349 0.624776 9.53003 0.921835 9.85616 1.23896C12.3578 3.66559 14.8251 6.12433 17.2903 8.58709C17.5287 8.86444 17.7441 9.16046 17.9344 9.47223L18.2849 9.20328Z" fill="#b4bbc4"></path>
  <path d="M102.507 15.0741C101.772 17.4185 101.012 19.7548 100.317 22.1112C100.115 22.7735 99.8191 23.0264 99.1183 22.9802C98.2094 22.9331 97.2986 22.9331 96.3897 22.9802C95.8367 23.0023 95.5531 22.8257 95.3668 22.2798C94.0542 18.4421 92.7179 14.6125 91.358 10.7909C91.0582 9.94791 91.3925 9.78734 92.1278 9.80741C93.0373 9.82748 93.9509 9.85959 94.8563 9.80741C95.5855 9.75924 95.8691 10.0824 96.0312 10.7227C96.6551 13.0951 97.3175 15.4575 98.1824 17.8661C98.2796 17.555 98.385 17.2459 98.4721 16.9327C99.0696 14.8554 99.6875 12.786 100.242 10.6986C100.421 10.0101 100.747 9.77329 101.436 9.81343C102.542 9.87766 103.933 9.4963 104.677 10.0141C105.42 10.532 105.487 11.945 105.821 12.9787C106.323 14.5844 106.789 16.1901 107.48 17.7958C108.045 15.8007 108.6 13.8036 109.176 11.8105C109.862 9.44011 109.291 9.83752 111.799 9.81343C114.262 9.78934 114.262 9.81343 113.472 12.0634C112.319 15.3591 111.132 18.6428 110.028 21.9546C109.753 22.7856 109.346 23.0485 108.513 22.9823C107.704 22.9217 106.892 22.9217 106.082 22.9823C105.418 23.0284 105.13 22.7615 104.944 22.1553C104.215 19.7748 103.443 17.4064 102.687 15.034L102.507 15.0741Z" fill="#b4bbc4"></path>
  <path d="M86.3466 22.1252C85.0603 22.5266 83.8226 23.1549 82.5364 23.2813C78.56 23.6687 75.6897 20.9932 75.4466 16.8424C75.3303 15.2382 75.7287 13.6385 76.585 12.2722C78.4891 9.2414 82.4067 8.54693 85.2507 10.7347C85.3743 10.831 85.5039 10.9234 85.7916 11.1361C85.7916 9.2695 85.8422 7.58752 85.7713 5.91758C85.7328 4.95817 86.0407 4.58886 87.0232 4.68118C87.7968 4.7297 88.5726 4.73305 89.3466 4.69122C89.9239 4.67516 90.1953 4.85982 90.1933 5.49407C90.1744 11.0458 90.1744 16.5989 90.1933 22.1533C90.1933 22.7374 90.0231 23.0284 89.383 22.9802C88.9462 22.9442 88.5072 22.9442 88.0704 22.9802C87.1872 23.0605 86.458 22.9341 86.3466 22.1252ZM85.9637 16.3647C85.9637 14.466 84.5154 12.9526 82.7349 12.9967C80.9543 13.0409 79.6478 14.476 79.662 16.3828C79.6761 18.2896 80.9847 19.7407 82.7571 19.7407C84.5296 19.7407 85.9658 18.2675 85.9617 16.3647H85.9637Z" fill="#b4bbc4"></path>
  <path d="M124.41 10.7748C124.739 10.2931 124.984 9.5224 125.356 9.45817C126.369 9.27953 127.435 9.37788 128.476 9.42806C128.604 9.42806 128.814 9.82949 128.816 10.0302C128.836 14.1248 128.841 18.2173 128.802 22.3099C128.802 22.5286 128.411 22.912 128.17 22.9301C127.437 23.0124 126.661 23.0786 125.958 22.914C125.516 22.8116 125.178 22.2818 124.809 21.9586C123.896 22.3339 122.867 22.9301 121.759 23.181C118.739 23.8634 115.976 22.4022 114.768 19.5922C113.915 17.6847 113.857 15.5202 114.608 13.5708C116.059 9.69702 120.359 8.25389 123.894 10.4477C124.088 10.5641 124.281 10.6905 124.41 10.7748ZM124.613 16.3948C124.613 14.4941 123.195 12.9827 121.41 13.0028C119.626 13.0228 118.303 14.47 118.307 16.3687C118.311 18.2675 119.63 19.7187 121.39 19.7407C123.199 19.7688 124.619 18.2936 124.631 16.3868L124.613 16.3948Z" fill="#b4bbc4"></path>
  <path d="M40.6137 10.6885C41.8068 10.2871 42.9411 9.70906 44.1322 9.55853C47.3894 9.14706 49.571 10.9976 49.6885 14.2291C49.7878 16.8866 49.7108 19.55 49.7331 22.2115C49.7331 22.7675 49.5305 22.9883 48.9654 22.9722C48.0559 22.9461 47.1423 22.9301 46.2348 22.9722C45.5258 23.0083 45.2848 22.7414 45.2949 22.0529C45.3253 20.09 45.3111 18.127 45.2949 16.166C45.3097 15.6671 45.2785 15.168 45.2017 14.6747C45.0417 13.8357 44.6244 13.1754 43.6663 13.059C42.7082 12.9426 41.8837 13.2597 41.4705 14.1288C41.1973 14.7312 41.0479 15.3814 41.0309 16.0416C40.9762 17.9704 40.956 19.9033 41.0309 21.8302C41.0715 22.7976 40.7149 23.0485 39.8156 22.9742C39.0421 22.919 38.2656 22.919 37.4921 22.9742C36.7649 23.0184 36.5644 22.7113 36.5685 22.0389C36.5887 18.2802 36.5887 14.5208 36.5685 10.7608C36.5685 10.0041 36.8622 9.74118 37.5813 9.79738C38.019 9.82749 38.4582 9.82749 38.8959 9.79738C39.775 9.75121 40.5812 9.76124 40.6137 10.6885Z" fill="#b4bbc4"></path>
  <path d="M65.0652 17.569H55.4576C55.8019 19.8029 58.6338 20.8728 60.5581 19.4678C61.4677 18.8014 61.9498 19.0021 62.521 19.7247C62.5844 19.7999 62.652 19.8716 62.7235 19.9394C64.1536 21.3786 64.1152 21.5953 62.2556 22.5608C58.0403 24.7485 52.6561 22.7615 51.4529 18.5806C49.8668 13.063 54.5258 8.25991 60.1631 9.61071C62.6628 10.2129 64.4919 12.2421 64.8687 14.8995C64.9923 15.7425 64.9983 16.6016 65.0652 17.569ZM60.8924 14.8413C60.8377 13.2717 59.9484 12.4087 58.4292 12.3886C56.7985 12.3665 55.5548 13.4082 55.488 14.8413H60.8924Z" fill="#b4bbc4"></path>
  <path d="M158.889 17.5529H149.01C149.508 18.2795 149.773 18.8797 150.225 19.2771C151.441 20.3429 153.339 20.3469 154.698 19.2971C155.247 18.8716 155.613 18.8616 156.049 19.3814C156.304 19.6865 156.61 19.9535 156.896 20.2365C157.935 21.2702 157.908 21.4066 156.713 22.2256C153.687 24.2889 146.883 23.9918 145.36 18.6488C144.61 16.0195 145.001 13.5306 146.98 11.5054C148.959 9.48025 151.388 9.03667 154.056 9.62677C156.628 10.1948 158.468 12.3685 158.78 15.1103C158.865 15.891 158.846 16.6839 158.889 17.5529ZM149.344 14.8554H154.726C154.769 13.3741 153.916 12.4829 152.431 12.3926C150.786 12.2943 149.464 13.3319 149.344 14.8554Z" fill="#b4bbc4"></path>
  <path d="M164.589 9.95594C165.428 9.95594 166.21 9.89572 166.961 9.98805C167.123 10.0353 167.271 10.1219 167.39 10.2401C167.51 10.3582 167.598 10.5041 167.646 10.6645C167.881 13.1372 167.862 13.1393 165.359 13.1714C165.156 13.1714 164.954 13.1874 164.668 13.2015C164.668 15.1645 164.581 17.1114 164.707 19.0443C164.767 20.0037 165.707 20.1442 166.513 20.0197C167.32 19.8953 167.502 20.1622 167.512 20.9049C167.546 23.3134 167.512 23.3777 165.055 23.3997C161.889 23.4298 160.396 22.1252 160.323 19.0101C160.226 15.1223 160.274 11.2305 160.244 7.33863C160.244 6.76058 160.43 6.47556 161.054 6.49965C161.828 6.53176 162.604 6.51972 163.378 6.49965C163.963 6.48761 164.216 6.73448 164.261 7.32258C164.334 8.18163 164.47 9.02864 164.589 9.95594Z" fill="#b4bbc4"></path>
  <path d="M131.644 13.7494C131.644 11.0579 131.666 8.36428 131.63 5.67271C131.63 4.95215 131.832 4.63703 132.592 4.67918C133.465 4.72735 134.344 4.71129 135.225 4.67918C135.855 4.6591 136.127 4.86584 136.123 5.53823C136.102 11.0552 136.102 16.5728 136.123 22.0911C136.123 22.7273 135.92 23.0023 135.258 22.9682C134.417 22.919 133.573 22.919 132.732 22.9682C131.909 23.0264 131.618 22.7675 131.634 21.9165C131.676 19.2028 131.644 16.4751 131.644 13.7494Z" fill="#b4bbc4"></path>
  <path d="M143.395 13.8498C143.395 16.5414 143.362 19.2349 143.413 21.9265C143.429 22.7815 143.133 23.0344 142.313 22.9782C141.442 22.92 140.561 22.9461 139.68 22.9782C139.106 22.9943 138.922 22.7534 138.924 22.2055C138.936 16.6216 138.936 11.0364 138.924 5.44992C138.924 4.87387 139.169 4.6852 139.71 4.69523C140.652 4.70928 141.596 4.72132 142.546 4.69523C143.208 4.67315 143.417 4.94211 143.409 5.58239C143.379 8.33016 143.395 11.09 143.395 13.8498Z" fill="#b4bbc4"></path>
  <path d="M70.5081 10.7628C71.8187 10.3092 73.0179 9.83752 74.2515 9.49028C74.9604 9.28957 75.4101 9.57659 75.2947 10.4417C75.2183 11.1354 75.1886 11.8334 75.2056 12.5311C75.2056 13.1332 74.9483 13.3139 74.3406 13.3159C71.9767 13.3159 70.9416 14.3857 70.9355 16.7541C70.9355 18.5144 70.9132 20.2766 70.9355 22.0369C70.9476 22.7053 70.7532 23.0164 70.0219 22.9762C69.1165 22.9281 68.1989 22.9461 67.2954 22.9762C66.7444 22.9903 66.5034 22.7936 66.5054 22.2276C66.5176 18.3397 66.5054 14.4539 66.5439 10.5661C66.5439 10.3192 66.949 9.92382 67.2306 9.8616C67.7431 9.74519 68.3001 9.84956 68.8369 9.81946C69.7363 9.76526 70.5324 9.8034 70.5081 10.7628Z" fill="#b4bbc4"></path>
</svg>
