<?xml version="1.0" encoding="UTF-8"?> <svg xmlns="http://www.w3.org/2000/svg" xmlns:xlink="http://www.w3.org/1999/xlink" width="99px" height="29px" viewBox="0 0 99 29"><!-- Generator: Sketch 52.6 (67491) - http://www.bohemiancoding.com/sketch --><title>Daily Mirror</title><desc>Created with Sketch.</desc><defs><polygon id="path-1" points="1.38914286 0.348947368 28.6502857 0.348947368 28.6502857 8.40094737 1.38914286 8.40094737"></polygon><polygon id="path-3" points="0.3893 0.762315789 66.5714286 0.762315789 66.5714286 18.9470526 0.3893 18.9470526"></polygon></defs><g id="TEMPLATES" stroke="none" stroke-width="1" fill="none" fill-rule="evenodd"><g id="1440-Home-Latest" transform="translate(-793.000000, -4743.000000)"><g id="Press" transform="translate(0.000000, 4572.000000)"><g id="Daily-Mirror" transform="translate(793.000000, 171.000000)"><g id="Group-3" transform="translate(31.428571, 0.230632)"><mask id="mask-2" fill="white"><use xlink:href="#path-1"></use></mask><g id="Clip-2"></g><path d="M28.6502857,0.348315789 L26.829,0.348315789 L25.6944286,2.26042105 C25.399,2.76568421 24.9762857,3.53936842 24.827,3.83621053 C24.6761429,3.53936842 24.2408571,2.73884211 23.9548571,2.26042105 L22.8234286,0.348315789 L20.9832857,0.348315789 L24.013,5.24621053 L24.013,8.40094737 L25.619,8.40094737 L25.619,5.21621053 L28.6502857,0.348315789 Z M23.0795714,8.39778947 L23.0795714,6.80621053 L19.5878571,6.80621053 L19.5815714,0.348315789 L17.9787143,0.348315789 L17.9787143,8.40094737 L23.0795714,8.39778947 Z M15.1721429,8.40094737 L16.7765714,8.40094737 L16.7765714,0.348315789 L15.1721429,0.348315789 L15.1721429,8.40094737 Z M12.0057143,5.07410526 L10.1718571,5.07410526 L10.6872857,3.61989474 C10.846,3.14621053 11.0062857,2.65989474 11.0864286,2.36305263 C11.1665714,2.65989474 11.3268571,3.14621053 11.4871429,3.61989474 L12.0057143,5.07410526 Z M14.9427143,8.40094737 L11.902,0.348315789 L10.3447143,0.348315789 L7.27571429,8.40094737 L8.99014286,8.40094737 L9.62028571,6.61042105 L12.551,6.61042105 L13.1827143,8.40094737 L14.9427143,8.40094737 Z M6.22914286,4.37621053 C6.22914286,5.84936842 5.467,6.83778947 3.78242857,6.83778947 L2.992,6.83778947 L2.992,1.91621053 L3.839,1.91621053 C5.53142857,1.91621053 6.22914286,2.73094737 6.22914286,4.37621053 Z M7.88228571,4.37621053 C7.88228571,1.43305263 6.18671429,0.348315789 3.89714286,0.348315789 L1.38914286,0.348315789 L1.38914286,8.40094737 L3.78242857,8.40094737 C5.84257143,8.40094737 7.88228571,7.20568421 7.88228571,4.37621053 Z" id="Fill-1" fill="#B4BBC4" mask="url(#mask-2)"></path></g><polygon id="Fill-4" fill="#B4BBC4" points="0.000157142863 28.2676842 6.9443 28.2676842 6.9443 12.6961053 12.3123 28.2676842 18.3780143 28.2676842 23.8167286 12.6961053 23.8167286 28.2676842 30.6980143 28.2676842 30.6980143 0.587157895 20.1961571 0.587157895 15.3545857 15.3518947 10.4910143 0.587157895 0.000157142863 0.587157895"></polygon><g id="Group-8" transform="translate(32.428571, 9.704316)"><mask id="mask-4" fill="white"><use xlink:href="#path-3"></use></mask><g id="Clip-7"></g><path d="M66.5715857,0.961263158 C65.9728714,0.863368421 65.2421571,0.762315789 64.5444429,0.762315789 C61.9547286,0.762315789 60.4603,2.16442105 59.4310143,4.36547368 L59.3618714,4.36547368 L59.3618714,1.16494737 L53.9153,1.16494737 L53.9153,18.5507368 L59.8945857,18.5507368 L59.8851571,11.2038947 C59.8851571,7.79968421 61.4550143,5.76442105 64.2443,5.76442105 C64.9404429,5.76442105 65.2264429,5.77231579 65.8880143,5.97284211 L66.5715857,0.961263158 Z M43.1258714,14.7470526 C40.3664429,14.7470526 39.2381571,12.4417895 39.2381571,9.87126316 C39.2381571,7.27073684 40.3664429,4.96547368 43.1258714,4.96547368 C45.8805857,4.96547368 47.0104429,7.27073684 47.0104429,9.87126316 C47.0104429,12.4417895 45.8805857,14.7470526 43.1258714,14.7470526 Z M43.1258714,18.9470526 C48.8364429,18.9470526 53.1893,15.6138947 53.1893,9.87126316 C53.1893,4.09547368 48.8364429,0.762315789 43.1258714,0.762315789 C37.4090143,0.762315789 33.0608714,4.09547368 33.0608714,9.87126316 C33.0608714,15.6138947 37.4090143,18.9470526 43.1258714,18.9470526 Z M34.3871571,0.961263158 C33.7931571,0.863368421 33.0608714,0.762315789 32.3631571,0.762315789 C29.7734429,0.762315789 28.2758714,2.16442105 27.2465857,4.36547368 L27.1821571,4.36547368 L27.1821571,1.16494737 L21.7355857,1.16494737 L21.7355857,18.5507368 L27.7148714,18.5507368 L27.7148714,11.2086316 C27.7148714,7.79968421 29.2878714,5.73757895 31.9058714,5.75336842 C32.6067286,5.76126316 32.9964429,5.78968421 33.6831571,5.97284211 L34.3871571,0.961263158 Z M21.2641571,0.977052632 C20.6654429,0.874421053 19.8121571,0.762315789 19.1113,0.762315789 C16.5200143,0.762315789 15.0255857,2.16442105 13.9963,4.36547368 L13.9287286,4.36547368 L13.9287286,1.16494737 L8.4853,1.16494737 L8.4853,18.5507368 L14.4614429,18.5507368 L14.4614429,11.2086316 C14.4614429,7.79968421 16.0203,5.76442105 18.8127286,5.76442105 C19.5104429,5.76442105 19.9190143,5.77231579 20.5853,5.97284211 L21.2641571,0.977052632 Z M0.3893,18.5507368 L6.37015714,18.5507368 L6.37015714,1.16494737 L0.3893,1.16494737 L0.3893,18.5507368 Z" id="Fill-6" fill="#B4BBC4" mask="url(#mask-4)"></path></g></g></g></g></g></svg> 