<?xml version="1.0" encoding="UTF-8"?> <svg xmlns="http://www.w3.org/2000/svg" xmlns:xlink="http://www.w3.org/1999/xlink" width="170px" height="34px" viewBox="0 0 170 34"><!-- Generator: Sketch 52.6 (67491) - http://www.bohemiancoding.com/sketch --><title>Bloomberg</title><desc>Created with Sketch.</desc><defs><polygon id="path-1" points="0 0.276434783 16.882167 0.276434783 16.882167 24.11 0 24.11"></polygon><polygon id="path-3" points="0 33.7241913 170 33.7241913 170 0.56506087 0 0.56506087"></polygon></defs><g id="TEMPLATES" stroke="none" stroke-width="1" fill="none" fill-rule="evenodd"><g id="1440-Home-Latest" transform="translate(-100.000000, -4740.000000)"><g id="Press" transform="translate(0.000000, 4572.000000)"><g id="Bloomberg" transform="translate(100.000000, 168.000000)"><g id="Group-3" transform="translate(0.000000, 0.289409)"><mask id="mask-2" fill="white"><use xlink:href="#path-1"></use></mask><g id="Clip-2"></g><path d="M6.21428704,18.8133043 L8.43373148,18.8133043 C9.32150926,18.8133043 11.5393796,18.8133043 11.0970648,16.6063478 C11.5393796,14.3993913 9.76539815,14.3993913 8.43373148,14.3993913 L6.21428704,14.3993913 L6.21428704,18.8133043 Z M6.21428704,9.10269565 L7.98984259,9.10269565 C8.87762037,9.10269565 10.209287,9.10269565 10.209287,7.33713043 C10.209287,5.57156522 8.87762037,5.57156522 7.98984259,5.57156522 L6.21428704,5.57156522 L6.21428704,9.10269565 Z M-0.000157407407,0.276434783 L7.10206481,0.276434783 C11.5393796,0.276434783 12.8710463,0.276434783 14.6466019,2.48182609 C15.5343796,3.3646087 15.9798426,5.13017391 15.9798426,6.45434783 C15.9798426,8.21991304 15.0920648,9.54408696 13.3165093,10.8682609 C17.3099352,12.1924348 16.8676204,15.7235652 16.8676204,17.0477391 C16.8676204,18.8133043 16.4221574,20.5788696 14.6466019,21.9030435 C12.4287315,23.6686087 11.5393796,24.11 7.5459537,24.11 L-0.000157407407,24.11 L-0.000157407407,0.276434783 Z" id="Fill-1" fill="#B4BBC4" mask="url(#mask-2)"></path></g><mask id="mask-4" fill="white"><use xlink:href="#path-3"></use></mask><g id="Clip-5"></g><polygon id="Fill-4" fill="#B4BBC4" mask="url(#mask-4)" points="18.6417593 24.3986261 23.9684259 24.3986261 23.9684259 0.56506087 18.6417593 0.56506087"></polygon><path d="M35.0648611,19.984713 C37.7281944,19.984713 39.50375,17.7777565 39.50375,15.5708 C39.50375,12.4826261 37.7281944,10.7170609 35.0648611,10.7170609 C32.8454167,10.7170609 31.0698611,12.4826261 31.0698611,15.5708 C31.0698611,17.7777565 32.8454167,19.984713 35.0648611,19.984713 M35.0648611,5.86175652 C41.7231944,5.86175652 44.8304167,10.7170609 44.8304167,15.5708 C44.8304167,19.544887 41.7231944,24.8415826 35.0648611,24.8415826 C28.8504167,24.8415826 25.7447685,19.544887 25.2993056,15.5708 C25.7447685,10.7170609 28.8504167,5.86175652 35.0648611,5.86175652" id="Fill-6" fill="#B4BBC4" mask="url(#mask-4)"></path><path d="M55.9266944,19.984713 C58.1461389,19.984713 60.3655833,17.7777565 60.3655833,15.5708 C60.3655833,12.4826261 58.1461389,10.7170609 55.9266944,10.7170609 C53.70725,10.7170609 51.4878056,12.4826261 51.4878056,15.5708 C51.4878056,17.7777565 53.70725,19.984713 55.9266944,19.984713 M55.9266944,5.86175652 C62.5850278,5.86175652 65.69225,10.7170609 65.69225,15.5708 C65.69225,19.544887 62.5850278,24.8415826 55.9266944,24.8415826 C49.2699352,24.8415826 46.1611389,19.544887 46.1611389,15.5708 C46.1611389,10.7170609 49.2699352,5.86175652 55.9266944,5.86175652" id="Fill-7" fill="#B4BBC4" mask="url(#mask-4)"></path><path d="M67.0236019,6.30283478 L71.9063796,6.30283478 L71.9063796,8.5097913 C72.3502685,7.6270087 73.6803611,5.86144348 76.7891574,5.86144348 C78.564713,5.86144348 80.7825833,6.30283478 82.11425,8.95118261 C83.4459167,7.18561739 85.2214722,5.86144348 87.8848056,5.86144348 C89.2164722,5.86144348 91.4359167,5.86144348 92.7675833,7.6270087 C94.5431389,9.39257391 94.5431389,10.7167478 94.5431389,14.6877043 L94.5431389,24.3998783 L89.2164722,24.3998783 L89.2164722,14.6877043 C89.2164722,13.3650957 89.2164722,10.7167478 86.5531389,10.7167478 C83.4459167,10.7167478 83.4459167,13.3650957 83.4459167,14.6877043 L83.4459167,24.3998783 L78.11925,24.3998783 L78.11925,14.6877043 C78.11925,13.3650957 78.11925,10.7167478 75.4559167,10.7167478 C72.3502685,10.7167478 72.3502685,13.806487 72.3502685,14.6877043 L72.3502685,24.3998783 L67.0236019,24.3998783 L67.0236019,6.30283478 Z" id="Fill-8" fill="#B4BBC4" mask="url(#mask-4)"></path><path d="M106.52688,19.984713 C109.190213,19.984713 110.965769,17.7777565 110.965769,15.5708 C110.965769,12.9224522 109.190213,10.7170609 106.52688,10.7170609 C103.86512,10.7170609 102.089565,12.9224522 102.089565,15.5708 C102.089565,17.7777565 103.86512,19.984713 106.52688,19.984713 Z M96.7613241,0.56506087 L102.53188,0.56506087 L102.53188,8.06871304 C104.307435,5.86175652 106.970769,5.86175652 107.414657,5.86175652 C111.409657,5.86175652 116.736324,8.50853913 116.292435,15.1294087 C116.736324,21.7502783 111.853546,24.8415826 107.414657,24.8415826 C104.752898,24.8415826 102.975769,23.5158435 102.089565,22.6330609 L102.089565,24.3986261 L96.7613241,24.3986261 L96.7613241,0.56506087 Z" id="Fill-9" fill="#B4BBC4" mask="url(#mask-4)"></path><path d="M131.827444,13.3646261 C131.827444,12.4818435 130.495778,10.274887 127.832444,10.274887 C125.170685,10.274887 123.837444,12.4818435 123.39513,13.3646261 L131.827444,13.3646261 Z M136.710222,18.6613217 C135.822444,20.8682783 134.490778,22.1924522 132.715222,23.5150609 C131.383556,24.3994087 129.608,24.8408 127.832444,24.8408 C122.507352,24.8408 118.068463,20.8682783 118.068463,15.5715826 C118.068463,10.274887 122.061889,5.86097391 127.388556,5.86097391 C133.159111,5.86097391 137.154111,10.274887 137.154111,15.5715826 L137.154111,16.8957565 L123.39513,16.8957565 C123.837444,19.102713 125.614574,20.426887 127.832444,20.426887 C129.608,20.426887 130.495778,19.5441043 130.939667,18.6613217 L136.710222,18.6613217 Z" id="Fill-10" fill="#B4BBC4" mask="url(#mask-4)"></path><path d="M139.373398,6.30283478 L144.256176,6.30283478 L144.256176,8.5097913 C145.143954,7.6270087 147.363398,6.30283478 149.581269,6.74422609 L149.581269,11.5995304 C147.363398,11.5995304 144.700065,11.5995304 144.700065,14.6877043 L144.700065,24.3998783 L139.373398,24.3998783 L139.373398,6.30283478 Z" id="Fill-11" fill="#B4BBC4" mask="url(#mask-4)"></path><path d="M160.235231,19.984713 C162.898565,19.984713 164.67412,18.220713 164.230231,15.5708 C164.67412,12.4826261 162.454676,10.7170609 160.235231,10.7170609 C158.015787,10.7170609 155.796343,12.4826261 155.796343,15.5708 C155.796343,18.220713 158.015787,19.984713 160.235231,19.984713 Z M170.000787,22.1916696 C170.000787,24.8415826 169.555324,28.3711478 168.667546,29.6953217 C167.337454,31.9022783 164.230231,34.1076696 159.791343,33.6662783 C153.576898,32.7850609 151.801343,30.136713 151.357454,27.4883652 L157.128009,27.4883652 C158.015787,28.8125391 159.791343,28.8125391 160.235231,29.2539304 C162.898565,28.8125391 164.67412,28.8125391 164.230231,23.0760174 L164.230231,22.6330609 C163.786343,23.5158435 162.454676,24.8415826 159.347454,24.8415826 C154.464676,24.8415826 150.469676,21.308887 150.469676,15.5708 C150.469676,9.39288696 154.908565,5.86175652 159.347454,5.86175652 C161.566898,5.86175652 163.342454,6.30314783 164.230231,8.06871304 L164.230231,6.30314783 L170.000787,6.30314783 L170.000787,22.1916696 Z" id="Fill-12" fill="#B4BBC4" mask="url(#mask-4)"></path></g></g></g></g></svg> 